<?xml version="1.0" encoding="UTF-8"?>
<svg width="110px" height="17px" viewBox="0 0 110 17" version="1.1" xmlns="http://www.w3.org/2000/svg" xmlns:xlink="http://www.w3.org/1999/xlink">
    <title>AC_logo_white</title>
    <g id="Design" stroke="none" stroke-width="1" fill="none" fill-rule="evenodd">
        <g id="Start" transform="translate(-10.000000, -40.000000)">
            <g id="lights" transform="translate(-122.730000, -99.000000)" stroke="#9DB2F6" stroke-width="2">
                <g id="lights_l" transform="translate(0.000000, 89.000000)">
                    <path d="M0,50.0520345 C54.6131167,83.4200575 151.675852,122.709534 291.188207,167.920464 C613.70363,259.459013 877.882872,203.485525 1083.72593,-7.10542736e-14" id="Path"></path>
                </g>
            </g>
            <g id="AC_logo_white" transform="translate(10.000000, 40.000000)" fill="#FFFFFE">
                <path d="M12.4463341,11.3491415 L10.0258237,8.92888631 L13.4513921,8.92888631 L12.4463341,11.3491415 Z M8.972529,13.4077494 L8.972529,9.99034803 L11.3927842,12.4108585 L8.972529,13.4077494 Z M5.05642691,12.4024362 L7.47693735,9.98218097 L7.47693735,13.4077494 L5.05642691,12.4024362 Z M2.99807425,8.92888631 L6.41547564,8.92888631 L3.99522042,11.3491415 L2.99807425,8.92888631 Z M4.00313225,5.01278422 L6.42364269,7.43329466 L2.99807425,7.43329466 L4.00313225,5.01278422 Z M7.47693735,2.95443155 L7.47693735,6.37183295 L5.05642691,3.95948956 L7.47693735,2.95443155 Z M11.3927842,3.95948956 L8.972529,6.38 L8.972529,2.95443155 L11.3927842,3.95948956 Z M13.4513921,7.43329466 L10.0339907,7.43329466 L12.4542459,5.01278422 L13.4513921,7.43329466 Z M16.2657077,8.92888631 L16.2657077,7.43329466 L15.067703,7.43329466 L13.5961021,3.87118329 L14.4485383,3.0187471 L13.3949884,1.96545244 L12.5428074,2.81788863 L8.98044084,1.3462877 L8.98044084,0.139860789 L7.47693735,0.139860789 L7.47693735,1.33812065 L3.91457077,2.81788863 L3.07030162,1.96545244 L2.00909513,3.02665893 L2.86153132,3.87909513 L1.38176334,7.43329466 L0.183758701,7.43329466 L0.183758701,8.92888631 L1.38176334,8.92888631 L2.85336427,12.4909977 L2.00092807,13.3434339 L3.05422274,14.3969838 L3.90665893,13.5445476 L7.4687703,15.0161485 L7.4687703,16.222065 L8.96436195,16.222065 L8.96436195,15.0240603 L12.5267285,13.5524594 L13.3789095,14.4048956 L14.4324594,13.3513457 L13.5800232,12.4991647 L15.0516241,8.93679814 L16.2657077,8.93679814 L16.2657077,8.92888631 L16.2657077,8.92888631 Z" id="Fill-1"></path>
                <path d="M23.5032483,9.19763341 L25.5577726,9.19763341 L24.5305104,6.13728538 L23.5032483,9.19763341 Z M26.4673782,11.9259397 L26.017935,10.5778654 L23.0326218,10.5778654 L22.5831787,11.9259397 L20.9888167,11.9259397 L23.6104408,4.43598608 L25.440116,4.43598608 L28.0722042,11.9259397 L26.4673782,11.9259397 L26.4673782,11.9259397 Z" id="Fill-2"></path>
                <path d="M31.6886775,10.5135499 C32.3415313,10.5135499 32.8657541,10.2996752 33.2723202,9.87167053 C33.6788863,9.43294664 33.882297,8.87656613 33.882297,8.18109049 C33.882297,7.48561485 33.6788863,6.92923434 33.2723202,6.5012297 C32.8657541,6.0625058 32.3415313,5.84863109 31.6886775,5.84863109 L30.1907889,5.84863109 L30.1907889,10.5135499 L31.6886775,10.5135499 Z M31.6886775,4.43598608 C32.7159397,4.43598608 33.571949,4.79993039 34.2567053,5.51684455 C34.952181,6.23350348 35.2946868,7.12192575 35.2946868,8.18109049 C35.2946868,9.24051044 34.952181,10.1284223 34.2567053,10.8453364 C33.571949,11.5622506 32.7159397,11.9259397 31.6886775,11.9259397 L28.7140835,11.9259397 L28.7140835,4.43598608 L31.6886775,4.43598608 L31.6886775,4.43598608 Z" id="Fill-3"></path>
                <polyline id="Fill-4" points="37.7588399 11.9259397 35.2444084 4.43598608 36.8492343 4.43598608 38.6789095 10.1927378 40.4978654 4.43598608 42.1136659 4.43598608 39.5885151 11.9259397 37.7588399 11.9259397"></polyline>
                <polyline id="Fill-5" points="44.3338283 10.5135499 47.4901392 10.5135499 47.4901392 11.9259397 42.857123 11.9259397 42.857123 4.43598608 47.4365429 4.43598608 47.4365429 5.84863109 44.3338283 5.84863109 44.3338283 7.44299304 47.1690719 7.44299304 47.1690719 8.8336891 44.3338283 8.8336891 44.3338283 10.5135499"></polyline>
                <polyline id="Fill-6" points="52.9508353 4.43598608 54.4272854 4.43598608 54.4272854 11.9259397 53.3040603 11.9259397 50.0938979 7.34651972 50.0938979 11.9259397 48.6174478 11.9259397 48.6174478 4.43598608 49.7409281 4.43598608 52.9508353 9.004942 52.9508353 4.43598608"></polyline>
                <polyline id="Fill-7" points="61.0099304 4.43598608 61.0099304 5.84863109 58.9880742 5.84863109 58.9880742 11.9259397 57.5111137 11.9259397 57.5111137 5.84863109 55.4997216 5.84863109 55.4997216 4.43598608 61.0099304 4.43598608"></polyline>
                <path d="M62.7719722,11.2945244 C62.2370302,10.8238979 61.9693039,10.1927378 61.9693039,9.40104408 L61.9693039,4.3612065 L63.43529,4.3612065 L63.43529,9.28313225 C63.43529,10.0641067 63.8740139,10.5564269 64.8262413,10.5564269 C65.7784687,10.5564269 66.2174478,10.0641067 66.2174478,9.28313225 L66.2174478,4.3612065 L67.6938979,4.3612065 L67.6938979,9.40104408 C67.6938979,10.1927378 67.4264269,10.8238979 66.8912297,11.2945244 C66.3565429,11.765406 65.6715313,12.0009745 64.8262413,12.0009745 C63.9916705,12.0009745 63.3069142,11.765406 62.7719722,11.2945244" id="Fill-8"></path>
                <path d="M70.1680046,5.81647332 L70.1680046,8.0312761 L71.6873318,8.0312761 C72.2437123,8.0312761 72.7038747,7.52849188 72.7038747,6.91851508 C72.7038747,6.30853828 72.2437123,5.81647332 71.6873318,5.81647332 L70.1680046,5.81647332 Z M72.800348,11.9259397 L71.2917401,9.32575406 L70.1680046,9.32575406 L70.1680046,11.9259397 L68.6915545,11.9259397 L68.6915545,4.43598608 L71.6873318,4.43598608 C72.3830626,4.43598608 72.9716009,4.68227378 73.4529466,5.16361949 C73.9342923,5.64522042 74.18058,6.23350348 74.18058,6.91851508 C74.18058,7.84930394 73.602761,8.70531323 72.7360325,9.10141531 L74.3944548,11.9259397 L72.800348,11.9259397 L72.800348,11.9259397 Z" id="Fill-9"></path>
                <polyline id="Fill-10" points="76.6702552 10.5135499 79.8265661 10.5135499 79.8265661 11.9259397 75.1935499 11.9259397 75.1935499 4.43598608 79.7729698 4.43598608 79.7729698 5.84863109 76.6702552 5.84863109 76.6702552 7.44299304 79.5054988 7.44299304 79.5054988 8.8336891 76.6702552 8.8336891 76.6702552 10.5135499"></polyline>
                <path d="M85.385522,10.952529 C84.6474246,10.2034571 84.2834803,9.28313225 84.2834803,8.18109049 C84.2834803,7.07904872 84.6474246,6.14800464 85.385522,5.40990719 C86.1238747,4.66083527 87.0546636,4.28617169 88.1783991,4.28617169 C89.5371926,4.28617169 90.756891,4.97118329 91.3990255,6.05178654 L90.1254756,6.79013921 C89.7513225,6.11584687 89.0341531,5.72025522 88.1783991,5.72025522 C87.4507657,5.72025522 86.8619722,5.94484919 86.4127842,6.40475638 C85.9740603,6.86491879 85.7494664,7.45345708 85.7494664,8.18109049 C85.7494664,8.89800464 85.9740603,9.4862877 86.4127842,9.94645012 C86.8619722,10.4066125 87.4507657,10.6314617 88.1783991,10.6314617 C89.0341531,10.6314617 89.7725058,10.2246404 90.1254756,9.57204176 L91.3990255,10.3103944 C90.756891,11.3909977 89.5479118,12.0757541 88.1783991,12.0757541 C87.0546636,12.0757541 86.1238747,11.7013457 85.385522,10.952529" id="Fill-11"></path>
                <polyline id="Fill-12" points="93.877471 10.5135499 96.7341531 10.5135499 96.7341531 11.9259397 92.4007657 11.9259397 92.4007657 4.43598608 93.877471 4.43598608 93.877471 10.5135499"></polyline>
                <path d="M98.4117169,11.2945244 C97.8767749,10.8238979 97.6093039,10.1927378 97.6093039,9.40104408 L97.6093039,4.3612065 L99.0750348,4.3612065 L99.0750348,9.28313225 C99.0750348,10.0641067 99.5137587,10.5564269 100.465986,10.5564269 C101.418469,10.5564269 101.856937,10.0641067 101.856937,9.28313225 L101.856937,4.3612065 L103.333387,4.3612065 L103.333387,9.40104408 C103.333387,10.1927378 103.066172,10.8238979 102.53123,11.2945244 C101.996032,11.765406 101.311531,12.0009745 100.465986,12.0009745 C99.6316705,12.0009745 98.9466589,11.765406 98.4117169,11.2945244" id="Fill-13"></path>
                <path d="M107.541462,10.5457077 C108.044246,10.5457077 108.40819,10.1712993 108.40819,9.6575406 C108.40819,9.15475638 108.044246,8.78034803 107.541462,8.78034803 L105.840162,8.78034803 L105.840162,10.5457077 L107.541462,10.5457077 Z M105.840162,5.81647332 L105.840162,7.46417633 L107.316868,7.46417633 C107.77703,7.46417633 108.119026,7.1112065 108.119026,6.64032483 C108.119026,6.16944316 107.787749,5.81647332 107.316868,5.81647332 L105.840162,5.81647332 Z M109.873921,9.7537587 C109.873921,10.385174 109.649327,10.909652 109.199884,11.3159629 C108.750441,11.7227842 108.19406,11.9259397 107.541462,11.9259397 L104.363712,11.9259397 L104.363712,4.43598608 L107.316868,4.43598608 C107.958492,4.43598608 108.493689,4.63939675 108.932413,5.03524362 C109.371137,5.43134571 109.595986,5.93412993 109.595986,6.54385151 C109.595986,7.16454756 109.360418,7.66733179 108.889536,8.04199536 C109.54239,8.41640371 109.873921,8.99422274 109.873921,9.7537587 L109.873921,9.7537587 Z" id="Fill-14"></path>
            </g>
            <g id="ac-snowflakes-fg" transform="translate(-18.000000, -18.000000)"></g>
        </g>
    </g>
</svg>