<?xml version="1.0" encoding="UTF-8"?>
<svg width="23px" height="23px" viewBox="0 0 23 23" version="1.1" xmlns="http://www.w3.org/2000/svg" xmlns:xlink="http://www.w3.org/1999/xlink">
    <title>Fill 1 Copy 12</title>
    <g id="Design" stroke="none" stroke-width="1" fill="none" fill-rule="evenodd">
        <g id="Start" transform="translate(-754.000000, -6469.000000)" fill="#B79A52">
            <g id="footer" transform="translate(91.000000, 6469.000000)">
                <path d="M673.430476,0 L673.430476,1.71363777 L668.33613,3.82950356 L667.128429,2.61061845 L665.610618,4.12842934 L666.829707,5.34731444 L664.713638,10.4304761 L663,10.4304761 L663,12.5695239 L664.713638,12.5695239 L666.818116,17.6638699 L665.599027,18.8829583 L667.105654,20.3893815 L668.324539,19.1704964 L673.418885,21.2747712 L673.418885,23 L675.557933,23 L675.557933,21.2863622 L680.652482,19.1820874 L681.871571,20.4009725 L683.378197,18.8945493 L682.159109,17.6754609 L684.263587,12.5811149 L686,12.5811149 L686,10.4304761 L684.286566,10.4304761 L682.182087,5.33592679 L683.400973,4.11683834 L681.894549,2.61061845 L680.675461,3.82950356 L675.581115,1.72482207 L675.581115,0 L673.430476,0 Z M675.569524,4.02512709 L679.030962,5.46220768 L675.569524,8.92384952 L675.569524,4.02512709 Z M669.969038,5.46220768 L673.430476,4.02512709 L673.430476,8.91225852 L669.969038,5.46220768 Z M680.548977,6.96903762 L681.975076,10.4304761 L677.087538,10.4304761 L680.548977,6.96903762 Z M668.462614,6.96903762 L671.924053,10.4304761 L667.025127,10.4304761 L668.462614,6.96903762 Z M677.075947,12.5695239 L681.975076,12.5695239 L680.537589,16.0309624 L677.075947,12.5695239 Z M667.025127,12.5695239 L671.912462,12.5695239 L668.451023,16.0309624 L667.025127,12.5695239 Z M669.969038,17.5373856 L673.430476,14.0759471 L673.430476,18.9748729 L669.969038,17.5373856 Z M675.569524,14.0875381 L679.030962,17.5489766 L675.569524,18.9748729 L675.569524,14.0875381 Z" id="Fill-1-Copy-12"></path>
            </g>
        </g>
    </g>
</svg>