<?xml version="1.0" encoding="UTF-8"?>
<svg width="36px" height="36px" viewBox="0 0 36 36" version="1.1" xmlns="http://www.w3.org/2000/svg" xmlns:xlink="http://www.w3.org/1999/xlink">
    <title>Fill 1 Copy 11</title>
    <g id="Design" stroke="none" stroke-width="1" fill="none" fill-rule="evenodd">
        <g id="Personal" transform="translate(-942.000000, -7662.000000)" fill="#FFFFFF">
            <g id="ac-snowflakes-fg" transform="translate(-18.000000, -18.000000)">
                <path d="M987.449897,7705.09194 L982.032041,7699.67404 L989.699857,7699.67404 L987.449897,7705.09194 Z M979.673863,7709.70012 L979.673863,7702.04974 L985.092038,7707.46796 L979.673863,7709.70012 Z M970.907962,7707.44982 L976.325818,7702.03192 L976.325818,7709.70012 L970.907962,7707.44982 Z M966.300143,7699.67404 L973.949817,7699.67404 L968.531961,7705.09194 L966.300143,7699.67404 Z M968.550103,7690.90806 L973.967959,7696.32596 L966.300143,7696.32596 L968.550103,7690.90806 Z M976.325818,7686.29988 L976.325818,7693.94994 L970.907962,7688.54986 L976.325818,7686.29988 Z M985.092038,7688.54986 L979.673863,7693.96808 L979.673863,7686.29988 L985.092038,7688.54986 Z M989.699857,7696.32596 L982.049865,7696.32596 L987.468039,7690.90806 L989.699857,7696.32596 Z M996,7699.67404 L996,7696.32596 L993.317808,7696.32596 L990.023871,7688.35189 L991.931993,7686.44375 L989.573816,7684.08587 L987.666012,7685.99401 L979.692006,7682.69972 L979.692006,7680 L976.325818,7680 L976.325818,7682.6819 L968.35213,7685.99401 L966.462151,7684.08587 L964.086149,7686.46189 L965.993953,7688.37003 L962.682192,7696.32596 L960,7696.32596 L960,7699.67404 L962.682192,7699.67404 L965.976129,7707.6478 L964.068007,7709.55593 L966.426184,7711.91413 L968.333988,7710.00568 L976.307994,7713.29996 L976.307994,7716 L979.656039,7716 L979.656039,7713.3181 L987.629728,7710.02382 L989.537849,7711.93196 L991.895708,7709.57376 L989.987905,7707.66594 L993.281842,7699.69186 L996,7699.69186 L996,7699.67404 Z" id="Fill-1-Copy-11"></path>
            </g>
        </g>
    </g>
</svg>