<?xml version="1.0" encoding="UTF-8"?>
<svg width="222px" height="229px" viewBox="0 0 222 229" version="1.1" xmlns="http://www.w3.org/2000/svg" xmlns:xlink="http://www.w3.org/1999/xlink">
    <title>chandelier</title>
    <g id="Design" stroke="none" stroke-width="1" fill="none" fill-rule="evenodd">
        <g id="Start" transform="translate(-1209.000000, -5661.000000)">
            <g id="chandelier" transform="translate(1210.000000, 5661.000000)">
                <circle id="Oval" fill="#B79A52" cx="109.497717" cy="24.109589" r="24.109589"></circle>
                <path d="M134.691295,76.9614633 C141.02676,83.2981761 144.947406,92.0522044 144.947406,101.721466 C144.947406,121.058742 129.269816,136.736331 109.931292,136.736331 C90.594017,136.736331 74.9164275,121.058742 74.9164275,101.721466 C74.9164275,92.0522044 78.8358249,83.2981761 85.1725377,76.9614633" id="Stroke-1" stroke="#9DB2F6" stroke-width="2"></path>
                <path d="M152.348686,59.3040724 C163.202882,70.1595171 169.917925,85.1566122 169.917925,101.721966 C169.917925,134.851424 143.0615,161.707849 109.930793,161.707849 C76.8013343,161.707849 49.9449093,134.851424 49.9449093,101.721966 C49.9449093,85.1566122 56.6587034,70.1595171 67.5153966,59.3040724" id="Stroke-3" stroke="#9DB2F6" stroke-width="2"></path>
                <path d="M170.006077,41.6466816 C185.380253,57.020858 194.890941,78.2597714 194.890941,101.721217 C194.890941,148.64161 156.853184,186.679367 109.931542,186.679367 C63.0111488,186.679367 24.9733911,148.64161 24.9733911,101.721217 C24.9733911,78.2597714 34.4828305,57.020858 49.8557583,41.6466816" id="Stroke-5" stroke="#9DB2F6" stroke-width="2"></path>
                <path d="M187.664716,23.9880422 C207.558873,43.882199 219.862709,71.3641792 219.862709,101.721716 C219.862709,162.434292 170.644868,211.653383 109.931042,211.653383 C49.2184661,211.653383 -0.000624306684,162.434292 -0.000624306684,101.721716 C-0.000624306684,71.3641792 12.3044604,43.882199 32.1973686,23.9880422" id="Stroke-7" stroke="#9DB2F6" stroke-width="2"></path>
                <line x1="109.931167" y1="23.9880422" x2="109.931167" y2="227.769236" id="Stroke-9" stroke="#9DB2F6" stroke-width="2"></line>
                <line x1="74.9164275" y1="227.76936" x2="144.947406" y2="227.76936" id="Stroke-11" stroke="#9DB2F6" stroke-width="2"></line>
            </g>
        </g>
    </g>
</svg>