<?xml version="1.0" encoding="UTF-8"?>
<svg width="409px" height="264px" viewBox="0 0 409 264" version="1.1" xmlns="http://www.w3.org/2000/svg" xmlns:xlink="http://www.w3.org/1999/xlink">
    <title>cracker_1</title>
    <g id="Design" stroke="none" stroke-width="1" fill="none" fill-rule="evenodd">
        <g id="Personal" transform="translate(-333.000000, -5467.000000)" fill="#4064D6">
            <g id="Group-8" transform="translate(333.000000, 5467.000000)">
                <path d="M0.897233202,2.84217094e-13 C68.6785766,2.71765864e-13 124.518291,51.128193 131.953693,116.921897 C139.386848,51.128193 195.226562,2.96668325e-13 263.007905,2.84217094e-13 L364.242371,2.84217094e-13 L408.936759,43.8850126 L364.242371,87.7700251 L408.936759,131.897233 L364.242371,176.024441 L408.936759,219.909454 L364.242371,263.794466 L263.007905,263.794466 C195.226578,263.794466 139.386875,212.666299 131.951451,146.872619 C124.518263,212.666299 68.6785599,263.794466 0.897233202,263.794466 L0,263.794466 L0,2.84217094e-13 L0.897233202,2.84217094e-13 Z" id="cracker_1"></path>
            </g>
        </g>
    </g>
</svg>