<?xml version="1.0" encoding="UTF-8"?>
<svg width="222px" height="210px" viewBox="0 0 222 210" version="1.1" xmlns="http://www.w3.org/2000/svg" xmlns:xlink="http://www.w3.org/1999/xlink">
    <title>Group 2</title>
    <g id="Design" stroke="none" stroke-width="1" fill="none" fill-rule="evenodd">
        <g id="Personal" transform="translate(-9.000000, -6213.000000)" stroke="#B79A52" stroke-width="2">
            <g id="Group-2" transform="translate(120.000000, 6317.500000) rotate(-180.000000) translate(-120.000000, -6317.500000) translate(10.000000, 6213.000000)">
                <g id="Group-17" transform="translate(110.000000, 120.000000) rotate(-180.000000) translate(-110.000000, -120.000000) translate(0.000000, 31.000000)">
                    <path d="M116.478144,177.231956 L116.478144,149.626944 C116.478144,137.206145 126.548414,127.135875 138.969213,127.135875 L172.969652,127.135875 C185.390451,127.135875 195.460721,117.067318 195.460721,104.644805 L195.460721,0" id="Stroke-1"></path>
                    <path d="M138.969042,127.135532 L142.474277,127.135532 C154.864238,127.135532 164.910524,117.092674 164.910524,104.700999 L164.910524,48.3876649" id="Stroke-3"></path>
                    <path d="M164.909838,104.701513 L164.909838,104.701513 C152.019618,104.701513 141.569015,94.2509093 141.569015,81.3606895 L141.569015,78.7497519" id="Stroke-5"></path>
                    <path d="M195.459865,72.1069371 L198.72011,72.1069371 C210.438492,72.1069371 219.938262,62.6071672 219.938262,50.8887855 L219.938262,22.7698092" id="Stroke-7"></path>
                    <path d="M103.459947,177.231956 L103.459947,149.626944 C103.459947,137.206145 93.3896768,127.135875 80.9688776,127.135875 L46.9684386,127.135875 C34.5476394,127.135875 24.4773693,117.067318 24.4773693,104.644805 L24.4773693,0" id="Stroke-9"></path>
                    <path d="M80.9690489,127.135532 L77.4638137,127.135532 C65.0738523,127.135532 55.0292804,117.092674 55.0292804,104.700999 L55.0292804,48.3876649" id="Stroke-11"></path>
                    <path d="M55.0299657,104.701513 L55.0299657,104.701513 C67.9184723,104.701513 78.3690758,94.2509093 78.3690758,81.3606895 L78.3690758,78.7497519" id="Stroke-13"></path>
                    <path d="M24.4782259,72.1069371 L21.2179802,72.1069371 C9.4995986,72.1069371 -0.000171321369,62.6071672 -0.000171321369,50.8887855 L-0.000171321369,22.7698092" id="Stroke-15"></path>
                </g>
                <circle id="Oval" cx="109.5" cy="7.5" r="7.5"></circle>
            </g>
        </g>
    </g>
</svg>