<?xml version="1.0" encoding="UTF-8"?>
<svg width="224px" height="136px" viewBox="0 0 224 136" version="1.1" xmlns="http://www.w3.org/2000/svg" xmlns:xlink="http://www.w3.org/1999/xlink">
    <title>mistletoe</title>
    <g id="Design" stroke="none" stroke-width="1" fill="none" fill-rule="evenodd">
        <g id="Personal" transform="translate(-248.000000, -153.000000)">
            <g id="mistletoe" transform="translate(250.000000, 155.000000)">
                <polygon id="Stroke-1" stroke="#9DB2F6" stroke-width="1.52777778" points="135.972222 84.0277778 168.819444 80.2498811 139.750119 51.1805556"></polygon>
                <polygon id="Stroke-2" stroke="#9DB2F6" stroke-width="1.52777778" points="161.180556 58.8194444 194.027778 55.0417235 164.958276 25.9722222"></polygon>
                <polygon id="Stroke-3" stroke="#9DB2F6" stroke-width="1.52777778" points="187.152778 32.8472222 220 29.0708538 190.930499 0"></polygon>
                <polygon id="Stroke-5" stroke="#9DB2F6" stroke-width="1.52777778" points="84.0277778 84.0277778 51.1805556 80.2498811 80.2498811 51.1805556"></polygon>
                <polygon id="Stroke-6" stroke="#9DB2F6" stroke-width="1.52777778" points="58.8194444 58.8194444 25.9722222 55.0417235 55.0415478 25.9722222"></polygon>
                <g id="Group-21">
                    <polygon id="Stroke-7" stroke="#9DB2F6" stroke-width="1.52777778" points="33.0985417 33.1976944 0.262013889 29.4225556 29.321875 0.361166667"></polygon>
                    <path d="M103.510611,91.2442361 C103.510611,87.635625 106.436306,84.7099306 110.043389,84.7099306 C113.653528,84.7099306 116.577694,87.635625 116.577694,91.2442361 C116.577694,94.8528472 113.653528,97.7770139 110.043389,97.7770139 C106.436306,97.7770139 103.510611,94.8528472 103.510611,91.2442361 Z" id="Stroke-11" fill="#B79A52"></path>
                    <path d="M115.732833,106.522014 C115.732833,102.913403 118.658528,99.9877083 122.265611,99.9877083 C125.87575,99.9877083 128.799917,102.913403 128.799917,106.522014 C128.799917,110.130625 125.87575,113.056319 122.265611,113.056319 C118.658528,113.056319 115.732833,110.130625 115.732833,106.522014 Z" id="Stroke-15" fill="#B79A52"></path>
                    <path d="M91.2883889,106.522014 C91.2883889,102.913403 94.2140833,99.9877083 97.8211667,99.9877083 C101.431306,99.9877083 104.355472,102.913403 104.355472,106.522014 C104.355472,110.130625 101.431306,113.056319 97.8211667,113.056319 C94.2140833,113.056319 91.2883889,110.130625 91.2883889,106.522014 Z" id="Stroke-19" fill="#B79A52"></path>
                </g>
                <line x1="84.5" y1="133.5" x2="134.5" y2="133.5" id="Line-3" stroke="#9DB2F6" stroke-linecap="square"></line>
            </g>
        </g>
    </g>
</svg>