<svg width="946" height="316" viewBox="0 0 946 316" fill="none" xmlns="http://www.w3.org/2000/svg">
<path fill-rule="evenodd" clip-rule="evenodd" d="M113.001 2.05298L3 140.947H223L113.001 2.05298Z" stroke="#6685E8" stroke-width="2"/>
<path fill-rule="evenodd" clip-rule="evenodd" d="M113.001 106.053L3 244.947H223L113.001 106.053Z" stroke="#6685E8" stroke-width="2"/>
<path fill-rule="evenodd" clip-rule="evenodd" d="M352.999 314.053L463 175.159L243 175.159L352.999 314.053Z" stroke="#6685E8" stroke-width="2"/>
<path fill-rule="evenodd" clip-rule="evenodd" d="M352.999 210.053L463 71.159L243 71.159L352.999 210.053Z" stroke="#6685E8" stroke-width="2"/>
<path fill-rule="evenodd" clip-rule="evenodd" d="M593.001 2.05298L483 140.947H703L593.001 2.05298Z" stroke="#6685E8" stroke-width="2"/>
<path fill-rule="evenodd" clip-rule="evenodd" d="M593.001 106.053L483 244.947H703L593.001 106.053Z" stroke="#6685E8" stroke-width="2"/>
<path fill-rule="evenodd" clip-rule="evenodd" d="M832.999 314.053L943 175.159L723 175.159L832.999 314.053Z" stroke="#6685E8" stroke-width="2"/>
<path fill-rule="evenodd" clip-rule="evenodd" d="M832.999 210.053L943 71.159L723 71.159L832.999 210.053Z" stroke="#6685E8" stroke-width="2"/>
<circle cx="353" cy="72" r="35" fill="#6685E8" stroke="#6685E8" stroke-width="2"/>
<circle cx="833" cy="72" r="35" fill="#6685E8" stroke="#6685E8" stroke-width="2"/>
</svg>
