<?xml version="1.0" encoding="UTF-8"?>
<svg width="220px" height="306px" viewBox="0 0 220 306" version="1.1" xmlns="http://www.w3.org/2000/svg" xmlns:xlink="http://www.w3.org/1999/xlink">
    <title>xxx_flag</title>
    <g id="Design" stroke="none" stroke-width="1" fill="none" fill-rule="evenodd">
        <g id="Personal" transform="translate(-970.000000, -1438.000000)">
            <g id="xxx_flag" transform="translate(970.000000, 1439.471783)">
                <g id="Group-5" transform="translate(30.697674, 0.705426)" stroke="#6685E8" stroke-width="2">
                    <polygon id="Stroke-1" points="0.749534884 0.234325581 157.316202 0.234325581 157.316202 186.736341 79.0320155 263.654481 0.749534884 186.736341"></polygon>
                    <polyline id="Stroke-3" points="32.0151163 217.457039 32.0151163 0.233472868 126.05062 0.233472868 126.05062 217.457039"></polyline>
                    <polyline id="Stroke-3" points="16.5499632 202.434574 16.5499632 0.434573643 142.090192 0.434573643 142.090192 202.434574"></polyline>
                </g>
                <polygon id="Fill-6" fill="#B79A52" points="129.495922 44.2507597 122.261504 37.0163411 109.730031 49.547814 97.1985581 37.0163411 89.9624341 44.2507597 102.495612 56.7822326 89.9624341 69.3137054 97.1985581 76.548124 109.730031 64.0166512 122.261504 76.548124 129.495922 69.3137054 116.96445 56.7822326"></polygon>
                <polygon id="Fill-7" fill="#B79A52" points="122.261163 94.9005581 109.72969 107.432031 97.1982171 94.9005581 89.9637984 102.134977 102.495271 114.66645 89.9637984 127.197922 97.1982171 134.434047 109.72969 121.902574 122.261163 134.434047 129.495581 127.197922 116.965814 114.66645 129.495581 102.134977"></polygon>
                <polygon id="Fill-8" fill="#B79A52" points="122.261163 152.785116 109.72969 165.316589 97.1982171 152.785116 89.9637984 160.019535 102.495271 172.551008 89.9637984 185.082481 97.1982171 192.318605 109.72969 179.787132 122.261163 192.318605 129.495581 185.082481 116.965814 172.551008 129.495581 160.019535"></polygon>
                <g id="Group-11" stroke="#6685E8" stroke-width="2">
                    <line x1="0.000170542636" y1="0.939751938" x2="219.461256" y2="0.939751938" id="Stroke-9"></line>
                </g>
                <circle id="Oval" stroke="#B79A52" stroke-width="2" cx="110" cy="284.528217" r="19"></circle>
            </g>
        </g>
    </g>
</svg>