<?xml version="1.0" encoding="UTF-8"?>
<svg width="220px" height="527px" viewBox="0 0 220 527" version="1.1" xmlns="http://www.w3.org/2000/svg" xmlns:xlink="http://www.w3.org/1999/xlink">
    <title>trees</title>
    <g id="Design" stroke="none" stroke-width="1" fill="none" fill-rule="evenodd">
        <g id="Start" transform="translate(-730.000000, -2666.000000)" stroke="#9DB2F6" stroke-width="2">
            <g id="trees" transform="translate(730.000000, 2666.000000)">
                <g id="tree_long" transform="translate(110.000000, 0.000000)">
                    <line x1="54.647103" y1="0.448768603" x2="54.647103" y2="390.322856" id="Stroke-1"></line>
                    <path d="M109.291739,181.437386 C79.1145117,181.437386 54.6480897,156.970964 54.6480897,126.79127" id="Stroke-4"></path>
                    <path d="M0.000246687054,181.437386 C30.1799409,181.437386 54.6463629,156.970964 54.6463629,126.79127" id="Stroke-6"></path>
                    <path d="M109.291739,236.083256 C79.1145117,236.083256 54.6480897,211.616834 54.6480897,181.43714" id="Stroke-8"></path>
                    <path d="M0.000246687054,236.083256 C30.1799409,236.083256 54.6463629,211.616834 54.6463629,181.43714" id="Stroke-10"></path>
                    <path d="M109.291739,72.1446606 C79.1145117,72.1446606 54.6480897,47.6782385 54.6480897,17.4985443" id="Stroke-12"></path>
                    <path d="M0.000246687054,72.1446606 C30.1799409,72.1446606 54.6463629,47.6782385 54.6463629,17.4985443" id="Stroke-14"></path>
                    <path d="M109.291739,126.79053 C79.1145117,126.79053 54.6480897,102.324108 54.6480897,72.1444139" id="Stroke-16"></path>
                    <path d="M0.000246687054,126.79053 C30.1799409,126.79053 54.6463629,102.324108 54.6463629,72.1444139" id="Stroke-18"></path>
                    <path d="M109.291739,290.730112 C79.1145117,290.730112 54.6480897,266.26369 54.6480897,236.083996" id="Stroke-20"></path>
                    <path d="M0.000246687054,290.730112 C30.1799409,290.730112 54.6463629,266.26369 54.6463629,236.083996" id="Stroke-22"></path>
                    <path d="M109.291739,345.375982 C79.1145117,345.375982 54.6480897,320.90956 54.6480897,290.729865" id="Stroke-24"></path>
                    <path d="M0.000246687054,345.375982 C30.1799409,345.375982 54.6463629,320.90956 54.6463629,290.729865" id="Stroke-26"></path>
                </g>
                <g id="tree_short" transform="translate(55.000000, 399.288991) rotate(-180.000000) translate(-55.000000, -399.288991) translate(-0.000000, 271.788991)">
                    <line x1="54.647103" y1="0.448768603" x2="55" y2="253.807339" id="Stroke-1"></line>
                    <path d="M109.291739,181.437386 C79.1145117,181.437386 54.6480897,156.970964 54.6480897,126.79127" id="Stroke-4"></path>
                    <path d="M0.000246687054,181.437386 C30.1799409,181.437386 54.6463629,156.970964 54.6463629,126.79127" id="Stroke-6"></path>
                    <path d="M109.291739,72.1446606 C79.1145117,72.1446606 54.6480897,47.6782385 54.6480897,17.4985443" id="Stroke-12"></path>
                    <path d="M0.000246687054,72.1446606 C30.1799409,72.1446606 54.6463629,47.6782385 54.6463629,17.4985443" id="Stroke-14"></path>
                    <path d="M109.291739,126.79053 C79.1145117,126.79053 54.6480897,102.324108 54.6480897,72.1444139" id="Stroke-16"></path>
                    <path d="M0.000246687054,126.79053 C30.1799409,126.79053 54.6463629,102.324108 54.6463629,72.1444139" id="Stroke-18"></path>
                </g>
            </g>
        </g>
    </g>
</svg>