<?xml version="1.0" encoding="UTF-8"?>
<svg width="1905px" height="442px" viewBox="0 0 1905 442" version="1.1" xmlns="http://www.w3.org/2000/svg" xmlns:xlink="http://www.w3.org/1999/xlink">
    <title>lights_1.2</title>
    <g id="Design" stroke="none" stroke-width="1" fill="none" fill-rule="evenodd">
        <g id="lights_1.2" transform="translate(1.270000, 0.000000)">
            <g id="lights_l" transform="translate(0.000000, 83.000000)">
                <path d="M0,50.0520345 C54.6131167,83.4200575 151.675852,122.709534 291.188207,167.920464 C613.70363,259.459013 877.882872,203.485525 1083.72593,-7.10542736e-14" id="Path" stroke="#9DB2F6" stroke-width="2"></path>
                <g id="light" transform="translate(560.730000, 210.000000)">
                    <path d="M12.8,4 L8.6248,4 C8.6248,4 0,13.1052 0,26.0064 C0,44.1752 8.1572,55.1228 12.8,60 C17.4428,55.1228 25.6,44.1752 25.6,26.0064 C25.6,13.1052 16.9752,4 16.9752,4 L12.8,4 Z" id="Stroke-1" fill="#6685E8"></path>
                    <path d="M19.6,0.0004 L12.8,0 L6,0.0004 L6,2.458 C6,5.9604 9.0444,8.8 12.8,8.8 C16.5556,8.8 19.6,5.9604 19.6,2.458 L19.6,0.0004 Z" id="Fill-3" fill="#9DB2F6"></path>
                </g>
                <g id="light-copy-6" transform="translate(435.730000, 230.000000) rotate(8.000000) translate(-435.730000, -230.000000) translate(422.730000, 200.000000)">
                    <path d="M12.8,4 L8.6248,4 C8.6248,4 0,13.1052 0,26.0064 C0,44.1752 8.1572,55.1228 12.8,60 C17.4428,55.1228 25.6,44.1752 25.6,26.0064 C25.6,13.1052 16.9752,4 16.9752,4 L12.8,4 Z" id="Stroke-1" fill="#B79A52"></path>
                    <path d="M19.6,0.0004 L12.8,0 L6,0.0004 L6,2.458 C6,5.9604 9.0444,8.8 12.8,8.8 C16.5556,8.8 19.6,5.9604 19.6,2.458 L19.6,0.0004 Z" id="Fill-3" fill="#9DB2F6"></path>
                </g>
                <g id="light-copy-7" transform="translate(302.730000, 202.000000) rotate(15.000000) translate(-302.730000, -202.000000) translate(289.730000, 172.000000)">
                    <path d="M12.8,4 L8.6248,4 C8.6248,4 0,13.1052 0,26.0064 C0,44.1752 8.1572,55.1228 12.8,60 C17.4428,55.1228 25.6,44.1752 25.6,26.0064 C25.6,13.1052 16.9752,4 16.9752,4 L12.8,4 Z" id="Stroke-1" fill="#6685E8"></path>
                    <path d="M19.6,0.0004 L12.8,0 L6,0.0004 L6,2.458 C6,5.9604 9.0444,8.8 12.8,8.8 C16.5556,8.8 19.6,5.9604 19.6,2.458 L19.6,0.0004 Z" id="Fill-3" fill="#9DB2F6"></path>
                </g>
                <g id="light-copy-8" transform="translate(176.730000, 160.000000) rotate(20.000000) translate(-176.730000, -160.000000) translate(163.730000, 130.000000)">
                    <path d="M12.8,4 L8.6248,4 C8.6248,4 0,13.1052 0,26.0064 C0,44.1752 8.1572,55.1228 12.8,60 C17.4428,55.1228 25.6,44.1752 25.6,26.0064 C25.6,13.1052 16.9752,4 16.9752,4 L12.8,4 Z" id="Stroke-1" fill="#B79A52"></path>
                    <path d="M19.6,0.0004 L12.8,0 L6,0.0004 L6,2.458 C6,5.9604 9.0444,8.8 12.8,8.8 C16.5556,8.8 19.6,5.9604 19.6,2.458 L19.6,0.0004 Z" id="Fill-3" fill="#9DB2F6"></path>
                </g>
                <g id="light-copy-9" transform="translate(58.730000, 113.000000) rotate(24.000000) translate(-58.730000, -113.000000) translate(45.730000, 83.000000)">
                    <path d="M12.8,4 L8.6248,4 C8.6248,4 0,13.1052 0,26.0064 C0,44.1752 8.1572,55.1228 12.8,60 C17.4428,55.1228 25.6,44.1752 25.6,26.0064 C25.6,13.1052 16.9752,4 16.9752,4 L12.8,4 Z" id="Stroke-1" fill="#6685E8"></path>
                    <path d="M19.6,0.0004 L12.8,0 L6,0.0004 L6,2.458 C6,5.9604 9.0444,8.8 12.8,8.8 C16.5556,8.8 19.6,5.9604 19.6,2.458 L19.6,0.0004 Z" id="Fill-3" fill="#9DB2F6"></path>
                </g>
                <g id="light-copy-2" transform="translate(834.730000, 196.000000) rotate(-20.000000) translate(-834.730000, -196.000000) translate(821.730000, 166.000000)">
                    <path d="M12.8,4 L8.6248,4 C8.6248,4 0,13.1052 0,26.0064 C0,44.1752 8.1572,55.1228 12.8,60 C17.4428,55.1228 25.6,44.1752 25.6,26.0064 C25.6,13.1052 16.9752,4 16.9752,4 L12.8,4 Z" id="Stroke-1" fill="#6685E8"></path>
                    <path d="M19.6,0.0004 L12.8,0 L6,0.0004 L6,2.458 C6,5.9604 9.0444,8.8 12.8,8.8 C16.5556,8.8 19.6,5.9604 19.6,2.458 L19.6,0.0004 Z" id="Fill-3" fill="#9DB2F6"></path>
                </g>
                <g id="light-copy-3" transform="translate(951.730000, 140.000000) rotate(-31.000000) translate(-951.730000, -140.000000) translate(938.730000, 110.000000)">
                    <path d="M12.8,4 L8.6248,4 C8.6248,4 0,13.1052 0,26.0064 C0,44.1752 8.1572,55.1228 12.8,60 C17.4428,55.1228 25.6,44.1752 25.6,26.0064 C25.6,13.1052 16.9752,4 16.9752,4 L12.8,4 Z" id="Stroke-1" fill="#B79A52"></path>
                    <path d="M19.6,0.0004 L12.8,0 L6,0.0004 L6,2.458 C6,5.9604 9.0444,8.8 12.8,8.8 C16.5556,8.8 19.6,5.9604 19.6,2.458 L19.6,0.0004 Z" id="Fill-3" fill="#9DB2F6"></path>
                </g>
                <g id="light-copy-4" transform="translate(1053.730000, 68.000000) rotate(-40.000000) translate(-1053.730000, -68.000000) translate(1040.730000, 38.000000)">
                    <path d="M12.8,4 L8.6248,4 C8.6248,4 0,13.1052 0,26.0064 C0,44.1752 8.1572,55.1228 12.8,60 C17.4428,55.1228 25.6,44.1752 25.6,26.0064 C25.6,13.1052 16.9752,4 16.9752,4 L12.8,4 Z" id="Stroke-1" fill="#6685E8"></path>
                    <path d="M19.6,0.0004 L12.8,0 L6,0.0004 L6,2.458 C6,5.9604 9.0444,8.8 12.8,8.8 C16.5556,8.8 19.6,5.9604 19.6,2.458 L19.6,0.0004 Z" id="Fill-3" fill="#9DB2F6"></path>
                </g>
                <g id="light-copy" transform="translate(704.730000, 230.000000) rotate(-9.000000) translate(-704.730000, -230.000000) translate(691.730000, 200.000000)">
                    <path d="M12.8,4 L8.6248,4 C8.6248,4 0,13.1052 0,26.0064 C0,44.1752 8.1572,55.1228 12.8,60 C17.4428,55.1228 25.6,44.1752 25.6,26.0064 C25.6,13.1052 16.9752,4 16.9752,4 L12.8,4 Z" id="Stroke-1" fill="#B79A52"></path>
                    <path d="M19.6,0.0004 L12.8,0 L6,0.0004 L6,2.458 C6,5.9604 9.0444,8.8 12.8,8.8 C16.5556,8.8 19.6,5.9604 19.6,2.458 L19.6,0.0004 Z" id="Fill-3" fill="#9DB2F6"></path>
                </g>
            </g>
            <g id="lights_r" transform="translate(1492.225934, 221.000000) rotate(-6.000000) translate(-1492.225934, -221.000000) translate(1098.725934, 41.000000)">
                <path d="M0,3.69482223e-13 C218.316616,244.809461 480.419047,339.617091 786.307294,284.42289" id="Path-2" stroke="#9DB2F6" stroke-width="2"></path>
                <g id="light-copy-5" transform="translate(54.004066, 98.000000) rotate(-315.000000) translate(-54.004066, -98.000000) translate(41.004066, 68.000000)">
                    <path d="M12.8,4 L8.6248,4 C8.6248,4 0,13.1052 0,26.0064 C0,44.1752 8.1572,55.1228 12.8,60 C17.4428,55.1228 25.6,44.1752 25.6,26.0064 C25.6,13.1052 16.9752,4 16.9752,4 L12.8,4 Z" id="Stroke-1" fill="#B79A52"></path>
                    <path d="M19.6,0.0004 L12.8,0 L6,0.0004 L6,2.458 C6,5.9604 9.0444,8.8 12.8,8.8 C16.5556,8.8 19.6,5.9604 19.6,2.458 L19.6,0.0004 Z" id="Fill-3" fill="#9DB2F6"></path>
                </g>
                <g id="light-copy-10" transform="translate(144.004066, 172.000000) rotate(-324.000000) translate(-144.004066, -172.000000) translate(131.004066, 142.000000)">
                    <path d="M12.8,4 L8.6248,4 C8.6248,4 0,13.1052 0,26.0064 C0,44.1752 8.1572,55.1228 12.8,60 C17.4428,55.1228 25.6,44.1752 25.6,26.0064 C25.6,13.1052 16.9752,4 16.9752,4 L12.8,4 Z" id="Stroke-1" fill="#6685E8"></path>
                    <path d="M19.6,0.0004 L12.8,0 L6,0.0004 L6,2.458 C6,5.9604 9.0444,8.8 12.8,8.8 C16.5556,8.8 19.6,5.9604 19.6,2.458 L19.6,0.0004 Z" id="Fill-3" fill="#9DB2F6"></path>
                </g>
                <g id="light-copy-11" transform="translate(250.004066, 238.000000) rotate(-332.000000) translate(-250.004066, -238.000000) translate(237.004066, 208.000000)">
                    <path d="M12.8,4 L8.6248,4 C8.6248,4 0,13.1052 0,26.0064 C0,44.1752 8.1572,55.1228 12.8,60 C17.4428,55.1228 25.6,44.1752 25.6,26.0064 C25.6,13.1052 16.9752,4 16.9752,4 L12.8,4 Z" id="Stroke-1" fill="#B79A52"></path>
                    <path d="M19.6,0.0004 L12.8,0 L6,0.0004 L6,2.458 C6,5.9604 9.0444,8.8 12.8,8.8 C16.5556,8.8 19.6,5.9604 19.6,2.458 L19.6,0.0004 Z" id="Fill-3" fill="#9DB2F6"></path>
                </g>
                <g id="light-copy-12" transform="translate(367.004066, 288.000000) rotate(-341.000000) translate(-367.004066, -288.000000) translate(354.004066, 258.000000)">
                    <path d="M12.8,4 L8.6248,4 C8.6248,4 0,13.1052 0,26.0064 C0,44.1752 8.1572,55.1228 12.8,60 C17.4428,55.1228 25.6,44.1752 25.6,26.0064 C25.6,13.1052 16.9752,4 16.9752,4 L12.8,4 Z" id="Stroke-1" fill="#6685E8"></path>
                    <path d="M19.6,0.0004 L12.8,0 L6,0.0004 L6,2.458 C6,5.9604 9.0444,8.8 12.8,8.8 C16.5556,8.8 19.6,5.9604 19.6,2.458 L19.6,0.0004 Z" id="Fill-3" fill="#9DB2F6"></path>
                </g>
                <g id="light-copy-13" transform="translate(497.004066, 320.000000) rotate(-352.000000) translate(-497.004066, -320.000000) translate(484.004066, 290.000000)">
                    <path d="M12.8,4 L8.6248,4 C8.6248,4 0,13.1052 0,26.0064 C0,44.1752 8.1572,55.1228 12.8,60 C17.4428,55.1228 25.6,44.1752 25.6,26.0064 C25.6,13.1052 16.9752,4 16.9752,4 L12.8,4 Z" id="Stroke-1" fill="#B79A52"></path>
                    <path d="M19.6,0.0004 L12.8,0 L6,0.0004 L6,2.458 C6,5.9604 9.0444,8.8 12.8,8.8 C16.5556,8.8 19.6,5.9604 19.6,2.458 L19.6,0.0004 Z" id="Fill-3" fill="#9DB2F6"></path>
                </g>
                <g id="light-copy-14" transform="translate(633.004066, 329.000000) rotate(-361.000000) translate(-633.004066, -329.000000) translate(620.004066, 299.000000)">
                    <path d="M12.8,4 L8.6248,4 C8.6248,4 0,13.1052 0,26.0064 C0,44.1752 8.1572,55.1228 12.8,60 C17.4428,55.1228 25.6,44.1752 25.6,26.0064 C25.6,13.1052 16.9752,4 16.9752,4 L12.8,4 Z" id="Stroke-1" fill="#6685E8"></path>
                    <path d="M19.6,0.0004 L12.8,0 L6,0.0004 L6,2.458 C6,5.9604 9.0444,8.8 12.8,8.8 C16.5556,8.8 19.6,5.9604 19.6,2.458 L19.6,0.0004 Z" id="Fill-3" fill="#9DB2F6"></path>
                </g>
            </g>
        </g>
    </g>
</svg>