<?xml version="1.0" encoding="UTF-8"?>
<svg width="967px" height="300px" viewBox="0 0 967 300" version="1.1" xmlns="http://www.w3.org/2000/svg" xmlns:xlink="http://www.w3.org/1999/xlink">
    <title>lights_4.1</title>
    <g id="Design" stroke="none" stroke-width="1" fill="none" fill-rule="evenodd">
        <g id="lights_4.1" transform="translate(0.000000, 0.777720)">
            <path d="M0,238.22228 L558.261375,238.22228 C585.178681,238.22228 607,216.508222 607,189.722008 C607,162.936339 585.178681,141.22228 558.261375,141.22228 L412.738625,141.22228 C385.821319,141.22228 364,119.508222 364,92.722553 C364,65.936339 385.821319,44.2222804 412.738625,44.2222804 L476,44.2222804" id="Stroke-16" stroke="#9DB2F6" stroke-width="2"></path>
            <line x1="543.5" y1="44.2222804" x2="604.5" y2="44.2222804" id="Line-2" stroke="#9DB2F6" stroke-width="2"></line>
            <path d="M716.5,44.2222804 L933.77772,44.2222804 C951.573594,44.2222804 966,29.7958741 966,12 L966,12 L966,12 L966,0.725948925" id="Line-2-Copy" stroke="#9DB2F6" stroke-width="2"></path>
            <g id="light" transform="translate(276.000000, 238.222280)">
                <path d="M12.8,4 L8.6248,4 C8.6248,4 -4.61852778e-14,13.1052 -4.61852778e-14,26.0064 C-4.61852778e-14,44.1752 8.1572,55.1228 12.8,60 C17.4428,55.1228 25.6,44.1752 25.6,26.0064 C25.6,13.1052 16.9752,4 16.9752,4 L12.8,4 Z" id="Stroke-1" fill="#6685E8"></path>
                <path d="M19.6,0.0004 L12.8,9.05941988e-14 L6,0.0004 L6,2.458 C6,5.9604 9.0444,8.8 12.8,8.8 C16.5556,8.8 19.6,5.9604 19.6,2.458 L19.6,0.0004 Z" id="Fill-3" fill="#9DB2F6"></path>
            </g>
            <g id="light-copy" transform="translate(44.000000, 238.222280)">
                <path d="M12.8,4 L8.6248,4 C8.6248,4 -4.61852778e-14,13.1052 -4.61852778e-14,26.0064 C-4.61852778e-14,44.1752 8.1572,55.1228 12.8,60 C17.4428,55.1228 25.6,44.1752 25.6,26.0064 C25.6,13.1052 16.9752,4 16.9752,4 L12.8,4 Z" id="Stroke-1" fill="#6685E8"></path>
                <path d="M19.6,0.0004 L12.8,9.05941988e-14 L6,0.0004 L6,2.458 C6,5.9604 9.0444,8.8 12.8,8.8 C16.5556,8.8 19.6,5.9604 19.6,2.458 L19.6,0.0004 Z" id="Fill-3" fill="#9DB2F6"></path>
            </g>
            <g id="light" transform="translate(508.000000, 238.222280)">
                <path d="M12.8,4 L8.6248,4 C8.6248,4 -4.61852778e-14,13.1052 -4.61852778e-14,26.0064 C-4.61852778e-14,44.1752 8.1572,55.1228 12.8,60 C17.4428,55.1228 25.6,44.1752 25.6,26.0064 C25.6,13.1052 16.9752,4 16.9752,4 L12.8,4 Z" id="Stroke-1" fill="#6685E8"></path>
                <path d="M19.6,0.0004 L12.8,9.05941988e-14 L6,0.0004 L6,2.458 C6,5.9604 9.0444,8.8 12.8,8.8 C16.5556,8.8 19.6,5.9604 19.6,2.458 L19.6,0.0004 Z" id="Fill-3" fill="#9DB2F6"></path>
            </g>
            <g id="light" transform="translate(506.400000, 81.222280)">
                <path d="M12.8,0 L8.6248,0 C8.6248,0 -2.73558953e-13,9.1052 -2.73558953e-13,22.0064 C-2.73558953e-13,40.1752 8.1572,51.1228 12.8,56 C17.4428,51.1228 25.6,40.1752 25.6,22.0064 C25.6,9.1052 16.9752,0 16.9752,0 L12.8,0 Z" id="Stroke-1" fill="#6685E8" transform="translate(12.800000, 28.000000) rotate(-180.000000) translate(-12.800000, -28.000000) "></path>
                <path d="M19.6,51.2004 L12.8,51.2 L6,51.2004 L6,53.658 C6,57.1604 9.0444,60 12.8,60 C16.5556,60 19.6,57.1604 19.6,53.658 L19.6,51.2004 Z" id="Fill-3" fill="#9DB2F6" transform="translate(12.800000, 55.600000) rotate(-180.000000) translate(-12.800000, -55.600000) "></path>
            </g>
            <g id="light" transform="translate(391.000000, 238.222280)">
                <path d="M12.8,4 L8.6248,4 C8.6248,4 -4.61852778e-14,13.1052 -4.61852778e-14,26.0064 C-4.61852778e-14,44.1752 8.1572,55.1228 12.8,60 C17.4428,55.1228 25.6,44.1752 25.6,26.0064 C25.6,13.1052 16.9752,4 16.9752,4 L12.8,4 Z" id="Stroke-1" fill="#B79A52"></path>
                <path d="M19.6,0.0004 L12.8,9.05941988e-14 L6,0.0004 L6,2.458 C6,5.9604 9.0444,8.8 12.8,8.8 C16.5556,8.8 19.6,5.9604 19.6,2.458 L19.6,0.0004 Z" id="Fill-3" fill="#9DB2F6"></path>
            </g>
            <g id="light-copy-2" transform="translate(159.000000, 238.222280)">
                <path d="M12.8,4 L8.6248,4 C8.6248,4 -4.61852778e-14,13.1052 -4.61852778e-14,26.0064 C-4.61852778e-14,44.1752 8.1572,55.1228 12.8,60 C17.4428,55.1228 25.6,44.1752 25.6,26.0064 C25.6,13.1052 16.9752,4 16.9752,4 L12.8,4 Z" id="Stroke-1" fill="#B79A52"></path>
                <path d="M19.6,0.0004 L12.8,9.05941988e-14 L6,0.0004 L6,2.458 C6,5.9604 9.0444,8.8 12.8,8.8 C16.5556,8.8 19.6,5.9604 19.6,2.458 L19.6,0.0004 Z" id="Fill-3" fill="#9DB2F6"></path>
            </g>
            <g id="light" transform="translate(607.000000, 177.222280)">
                <path d="M32.4,-15 L28.2248,-15 C28.2248,-15 19.6,-5.8948 19.6,7.0064 C19.6,25.1752 27.7572,36.1228 32.4,41 C37.0428,36.1228 45.2,25.1752 45.2,7.0064 C45.2,-5.8948 36.5752,-15 36.5752,-15 L32.4,-15 Z" id="Stroke-1" fill="#B79A52" transform="translate(32.400000, 13.000000) rotate(-90.000000) translate(-32.400000, -13.000000) "></path>
                <path d="M11.6,8.6004 L4.8,8.6 L-2,8.6004 L-2,11.058 C-2,14.5604 1.0444,17.4 4.8,17.4 C8.5556,17.4 11.6,14.5604 11.6,11.058 L11.6,8.6004 Z" id="Fill-3" fill="#9DB2F6" transform="translate(4.800000, 13.000000) rotate(-90.000000) translate(-4.800000, -13.000000) "></path>
            </g>
            <g id="light-copy-3" transform="translate(364.000000, 80.222280)">
                <path d="M32.4,-15 L28.2248,-15 C28.2248,-15 19.6,-5.8948 19.6,7.0064 C19.6,25.1752 27.7572,36.1228 32.4,41 C37.0428,36.1228 45.2,25.1752 45.2,7.0064 C45.2,-5.8948 36.5752,-15 36.5752,-15 L32.4,-15 Z" id="Stroke-1" fill="#B79A52" transform="translate(32.400000, 13.000000) rotate(-90.000000) translate(-32.400000, -13.000000) "></path>
                <path d="M11.6,8.6004 L4.8,8.6 L-2,8.6004 L-2,11.058 C-2,14.5604 1.0444,17.4 4.8,17.4 C8.5556,17.4 11.6,14.5604 11.6,11.058 L11.6,8.6004 Z" id="Fill-3" fill="#9DB2F6" transform="translate(4.800000, 13.000000) rotate(-90.000000) translate(-4.800000, -13.000000) "></path>
            </g>
        </g>
    </g>
</svg>