<?xml version="1.0" encoding="UTF-8"?>
<svg width="968px" height="832px" viewBox="0 0 968 832" version="1.1" xmlns="http://www.w3.org/2000/svg" xmlns:xlink="http://www.w3.org/1999/xlink">
    <title>lights_5.2</title>
    <g id="Design" stroke="none" stroke-width="1" fill="none" fill-rule="evenodd">
        <g id="lights_5.2" transform="translate(0.000675, 1.000000)">
            <path d="M-66.7821198,322.354306 C108.276308,328.17594 111.712377,482.185 293.512114,482.185 C478.816114,482.185 478.816114,322.185 664.119114,322.185 C849.422114,322.185 849.422114,482.185 1034.72611,482.185" id="Stroke-1" stroke="#9DB2F6" stroke-width="2" transform="translate(483.971997, 402.185000) rotate(-322.000000) translate(-483.971997, -402.185000) "></path>
            <g id="light-copy" transform="translate(325.999325, 408.000000) rotate(24.000000) translate(-325.999325, -408.000000) translate(312.999325, 378.000000)">
                <path d="M12.8,4 L8.6248,4 C8.6248,4 -4.61852778e-14,13.1052 -4.61852778e-14,26.0064 C-4.61852778e-14,44.1752 8.1572,55.1228 12.8,60 C17.4428,55.1228 25.6,44.1752 25.6,26.0064 C25.6,13.1052 16.9752,4 16.9752,4 L12.8,4 Z" id="Stroke-1" fill="#B79A52"></path>
                <path d="M19.6,0.0004 L12.8,9.05941988e-14 L6,0.0004 L6,2.458 C6,5.9604 9.0444,8.8 12.8,8.8 C16.5556,8.8 19.6,5.9604 19.6,2.458 L19.6,0.0004 Z" id="Fill-3" fill="#9DB2F6"></path>
            </g>
            <g id="light-copy-4" transform="translate(590.999325, 437.000000) rotate(18.000000) translate(-590.999325, -437.000000) translate(577.999325, 407.000000)">
                <path d="M12.8,4 L8.6248,4 C8.6248,4 -4.61852778e-14,13.1052 -4.61852778e-14,26.0064 C-4.61852778e-14,44.1752 8.1572,55.1228 12.8,60 C17.4428,55.1228 25.6,44.1752 25.6,26.0064 C25.6,13.1052 16.9752,4 16.9752,4 L12.8,4 Z" id="Stroke-1" fill="#B79A52"></path>
                <path d="M19.6,0.0004 L12.8,9.05941988e-14 L6,0.0004 L6,2.458 C6,5.9604 9.0444,8.8 12.8,8.8 C16.5556,8.8 19.6,5.9604 19.6,2.458 L19.6,0.0004 Z" id="Fill-3" fill="#9DB2F6"></path>
            </g>
            <g id="light-copy-6" transform="translate(749.999325, 670.000000) rotate(77.000000) translate(-749.999325, -670.000000) translate(736.999325, 640.000000)">
                <path d="M12.8,4 L8.6248,4 C8.6248,4 -4.61852778e-14,13.1052 -4.61852778e-14,26.0064 C-4.61852778e-14,44.1752 8.1572,55.1228 12.8,60 C17.4428,55.1228 25.6,44.1752 25.6,26.0064 C25.6,13.1052 16.9752,4 16.9752,4 L12.8,4 Z" id="Stroke-1" fill="#B79A52"></path>
                <path d="M19.6,0.0004 L12.8,9.05941988e-14 L6,0.0004 L6,2.458 C6,5.9604 9.0444,8.8 12.8,8.8 C16.5556,8.8 19.6,5.9604 19.6,2.458 L19.6,0.0004 Z" id="Fill-3" fill="#9DB2F6"></path>
            </g>
            <g id="light-copy-9" transform="translate(160.999325, 186.000000) rotate(79.000000) translate(-160.999325, -186.000000) translate(147.999325, 156.000000)">
                <path d="M12.8,4 L8.6248,4 C8.6248,4 -4.61852778e-14,13.1052 -4.61852778e-14,26.0064 C-4.61852778e-14,44.1752 8.1572,55.1228 12.8,60 C17.4428,55.1228 25.6,44.1752 25.6,26.0064 C25.6,13.1052 16.9752,4 16.9752,4 L12.8,4 Z" id="Stroke-1" fill="#B79A52"></path>
                <path d="M19.6,0.0004 L12.8,9.05941988e-14 L6,0.0004 L6,2.458 C6,5.9604 9.0444,8.8 12.8,8.8 C16.5556,8.8 19.6,5.9604 19.6,2.458 L19.6,0.0004 Z" id="Fill-3" fill="#9DB2F6"></path>
            </g>
            <g id="light-copy-2" transform="translate(443.999325, 400.000000)">
                <path d="M12.8,4 L8.6248,4 C8.6248,4 -4.61852778e-14,13.1052 -4.61852778e-14,26.0064 C-4.61852778e-14,44.1752 8.1572,55.1228 12.8,60 C17.4428,55.1228 25.6,44.1752 25.6,26.0064 C25.6,13.1052 16.9752,4 16.9752,4 L12.8,4 Z" id="Stroke-1" fill="#6685E8"></path>
                <path d="M19.6,0.0004 L12.8,9.05941988e-14 L6,0.0004 L6,2.458 C6,5.9604 9.0444,8.8 12.8,8.8 C16.5556,8.8 19.6,5.9604 19.6,2.458 L19.6,0.0004 Z" id="Fill-3" fill="#9DB2F6"></path>
            </g>
            <g id="light-copy-5" transform="translate(702.999325, 521.000000) rotate(54.000000) translate(-702.999325, -521.000000) translate(689.999325, 491.000000)">
                <path d="M12.8,4 L8.6248,4 C8.6248,4 -4.61852778e-14,13.1052 -4.61852778e-14,26.0064 C-4.61852778e-14,44.1752 8.1572,55.1228 12.8,60 C17.4428,55.1228 25.6,44.1752 25.6,26.0064 C25.6,13.1052 16.9752,4 16.9752,4 L12.8,4 Z" id="Stroke-1" fill="#6685E8"></path>
                <path d="M19.6,0.0004 L12.8,9.05941988e-14 L6,0.0004 L6,2.458 C6,5.9604 9.0444,8.8 12.8,8.8 C16.5556,8.8 19.6,5.9604 19.6,2.458 L19.6,0.0004 Z" id="Fill-3" fill="#9DB2F6"></path>
            </g>
            <g id="light-copy-8" transform="translate(213.999325, 320.000000) rotate(53.000000) translate(-213.999325, -320.000000) translate(200.999325, 290.000000)">
                <path d="M12.8,4 L8.6248,4 C8.6248,4 -4.61852778e-14,13.1052 -4.61852778e-14,26.0064 C-4.61852778e-14,44.1752 8.1572,55.1228 12.8,60 C17.4428,55.1228 25.6,44.1752 25.6,26.0064 C25.6,13.1052 16.9752,4 16.9752,4 L12.8,4 Z" id="Stroke-1" fill="#6685E8"></path>
                <path d="M19.6,0.0004 L12.8,9.05941988e-14 L6,0.0004 L6,2.458 C6,5.9604 9.0444,8.8 12.8,8.8 C16.5556,8.8 19.6,5.9604 19.6,2.458 L19.6,0.0004 Z" id="Fill-3" fill="#9DB2F6"></path>
            </g>
            <g id="light-copy-10" transform="translate(109.999325, 54.000000) rotate(51.000000) translate(-109.999325, -54.000000) translate(96.999325, 24.000000)">
                <path d="M12.8,4 L8.6248,4 C8.6248,4 -4.61852778e-14,13.1052 -4.61852778e-14,26.0064 C-4.61852778e-14,44.1752 8.1572,55.1228 12.8,60 C17.4428,55.1228 25.6,44.1752 25.6,26.0064 C25.6,13.1052 16.9752,4 16.9752,4 L12.8,4 Z" id="Stroke-1" fill="#6685E8"></path>
                <path d="M19.6,0.0004 L12.8,9.05941988e-14 L6,0.0004 L6,2.458 C6,5.9604 9.0444,8.8 12.8,8.8 C16.5556,8.8 19.6,5.9604 19.6,2.458 L19.6,0.0004 Z" id="Fill-3" fill="#9DB2F6"></path>
            </g>
            <g id="light-copy-7" transform="translate(819.999325, 801.000000) rotate(50.000000) translate(-819.999325, -801.000000) translate(806.999325, 771.000000)">
                <path d="M12.8,4 L8.6248,4 C8.6248,4 -4.61852778e-14,13.1052 -4.61852778e-14,26.0064 C-4.61852778e-14,44.1752 8.1572,55.1228 12.8,60 C17.4428,55.1228 25.6,44.1752 25.6,26.0064 C25.6,13.1052 16.9752,4 16.9752,4 L12.8,4 Z" id="Stroke-1" fill="#6685E8"></path>
                <path d="M19.6,0.0004 L12.8,9.05941988e-14 L6,0.0004 L6,2.458 C6,5.9604 9.0444,8.8 12.8,8.8 C16.5556,8.8 19.6,5.9604 19.6,2.458 L19.6,0.0004 Z" id="Fill-3" fill="#9DB2F6"></path>
            </g>
        </g>
    </g>
</svg>