<?xml version="1.0" encoding="UTF-8"?>
<svg width="446px" height="217px" viewBox="0 0 446 217" version="1.1" xmlns="http://www.w3.org/2000/svg" xmlns:xlink="http://www.w3.org/1999/xlink">
    <title>lights_2.1</title>
    <g id="Design" stroke="none" stroke-width="1" fill="none" fill-rule="evenodd">
        <g id="lights_2.1" transform="translate(1.000000, 0.000000)">
            <path d="M25.0023639,134.105446 L11.4588532,134.105446 C5.1303723,134.105446 0,139.230536 0,145.552788 C0,151.874911 5.1303723,157 11.4588532,157 L15.8026086,157 L15.0014183,157 L336.271741,157 C363.183322,157 385,135.285941 385,108.499727 C385,81.7140585 363.183322,60 336.271741,60 L219.984399,60" id="Stroke-16" stroke="#9DB2F6" stroke-width="2"></path>
            <g id="light" transform="translate(54.000000, 157.000000)">
                <path d="M12.8,4 L8.6248,4 C8.6248,4 0,13.1052 0,26.0064 C0,44.1752 8.1572,55.1228 12.8,60 C17.4428,55.1228 25.6,44.1752 25.6,26.0064 C25.6,13.1052 16.9752,4 16.9752,4 L12.8,4 Z" id="Stroke-1" fill="#6685E8"></path>
                <path d="M19.6,0.0004 L12.8,0 L6,0.0004 L6,2.458 C6,5.9604 9.0444,8.8 12.8,8.8 C16.5556,8.8 19.6,5.9604 19.6,2.458 L19.6,0.0004 Z" id="Fill-3" fill="#9DB2F6"></path>
            </g>
            <g id="light-copy-17" transform="translate(286.000000, 157.000000)">
                <path d="M12.8,4 L8.6248,4 C8.6248,4 0,13.1052 0,26.0064 C0,44.1752 8.1572,55.1228 12.8,60 C17.4428,55.1228 25.6,44.1752 25.6,26.0064 C25.6,13.1052 16.9752,4 16.9752,4 L12.8,4 Z" id="Stroke-1" fill="#6685E8"></path>
                <path d="M19.6,0.0004 L12.8,0 L6,0.0004 L6,2.458 C6,5.9604 9.0444,8.8 12.8,8.8 C16.5556,8.8 19.6,5.9604 19.6,2.458 L19.6,0.0004 Z" id="Fill-3" fill="#9DB2F6"></path>
            </g>
            <g id="light-copy-18" transform="translate(297.000000, 30.000000) rotate(-180.000000) translate(-297.000000, -30.000000) translate(284.000000, 0.000000)">
                <path d="M12.8,4 L8.6248,4 C8.6248,4 0,13.1052 0,26.0064 C0,44.1752 8.1572,55.1228 12.8,60 C17.4428,55.1228 25.6,44.1752 25.6,26.0064 C25.6,13.1052 16.9752,4 16.9752,4 L12.8,4 Z" id="Stroke-1" fill="#6685E8"></path>
                <path d="M19.6,0.0004 L12.8,0 L6,0.0004 L6,2.458 C6,5.9604 9.0444,8.8 12.8,8.8 C16.5556,8.8 19.6,5.9604 19.6,2.458 L19.6,0.0004 Z" id="Fill-3" fill="#9DB2F6"></path>
            </g>
            <g id="light-copy-16" transform="translate(169.000000, 157.000000)">
                <path d="M12.8,4 L8.6248,4 C8.6248,4 0,13.1052 0,26.0064 C0,44.1752 8.1572,55.1228 12.8,60 C17.4428,55.1228 25.6,44.1752 25.6,26.0064 C25.6,13.1052 16.9752,4 16.9752,4 L12.8,4 Z" id="Stroke-1" fill="#B79A52"></path>
                <path d="M19.6,0.0004 L12.8,0 L6,0.0004 L6,2.458 C6,5.9604 9.0444,8.8 12.8,8.8 C16.5556,8.8 19.6,5.9604 19.6,2.458 L19.6,0.0004 Z" id="Fill-3" fill="#9DB2F6"></path>
            </g>
            <g id="light-copy-15" transform="translate(415.000000, 109.000000) rotate(-90.000000) translate(-415.000000, -109.000000) translate(402.000000, 79.000000)">
                <path d="M12.8,4 L8.6248,4 C8.6248,4 0,13.1052 0,26.0064 C0,44.1752 8.1572,55.1228 12.8,60 C17.4428,55.1228 25.6,44.1752 25.6,26.0064 C25.6,13.1052 16.9752,4 16.9752,4 L12.8,4 Z" id="Stroke-1" fill="#B79A52"></path>
                <path d="M19.6,0.0004 L12.8,0 L6,0.0004 L6,2.458 C6,5.9604 9.0444,8.8 12.8,8.8 C16.5556,8.8 19.6,5.9604 19.6,2.458 L19.6,0.0004 Z" id="Fill-3" fill="#9DB2F6"></path>
            </g>
        </g>
    </g>
</svg>