<?xml version="1.0" encoding="UTF-8"?>
<svg width="461px" height="461px" viewBox="0 0 461 461" version="1.1" xmlns="http://www.w3.org/2000/svg" xmlns:xlink="http://www.w3.org/1999/xlink">
    <title>ac_snowflake_1</title>
    <g id="Design" stroke="none" stroke-width="1" fill="none" fill-rule="evenodd">
        <g id="Start" transform="translate(-970.000000, -1128.000000)" fill="#6685E8">
            <g id="ac_snowflake_1" transform="translate(970.000000, 1128.000000)">
                <path d="M324.624583,301.245234 L270.494622,247.115273 L347.104003,247.115273 L324.624583,301.245234 Z M246.934001,347.285275 L246.934001,270.850794 L301.067142,324.983935 L246.934001,347.285275 Z M159.353619,324.802675 L213.48358,270.672714 L213.48358,347.285275 L159.353619,324.802675 Z M113.316758,247.115273 L189.74488,247.115273 L135.614919,301.245234 L113.316758,247.115273 Z M135.796179,159.534891 L189.92614,213.664853 L113.316758,213.664853 L135.796179,159.534891 Z M213.48358,113.49485 L213.48358,189.926152 L159.353619,135.974271 L213.48358,113.49485 Z M301.067142,135.974271 L246.934001,190.107412 L246.934001,113.49485 L301.067142,135.974271 Z M347.104003,213.664853 L270.672702,213.664853 L324.805843,159.534891 L347.104003,213.664853 Z M410.048925,247.115273 L410.048925,213.664853 L383.251064,213.664853 L350.341243,133.996311 L369.405344,114.93221 L345.844723,91.37477 L326.783803,110.43887 L247.115261,77.5258697 L247.115261,50.5531091 L213.48358,50.5531091 L213.48358,77.3477897 L133.818219,110.43887 L114.935378,91.37477 L91.1966779,115.11347 L110.257598,134.177571 L77.1696976,213.664853 L50.3718371,213.664853 L50.3718371,247.115273 L77.1696976,247.115273 L110.079518,326.780635 L91.0154179,345.844735 L114.576038,369.405356 L133.636959,350.338075 L213.3055,383.251076 L213.3055,410.227017 L246.755921,410.227017 L246.755921,383.432336 L326.421283,350.519335 L345.485383,369.583436 L369.042824,346.022815 L349.981903,326.961895 L382.891724,247.293353 L410.048925,247.293353 L410.048925,247.115273 Z" id="Fill-1"></path>
                <polygon id="Fill-2" points="97.386548 97.5668661 71.0688675 97.5668661 97.386548 71.2460056"></polygon>
                <polygon id="Fill-3" points="77.1436216 77.3223497 18.6538804 77.3223497 77.1436216 18.8326085"></polygon>
                <polygon id="Fill-4" points="97.386548 363.211988 97.386548 389.532848 71.0688675 363.211988"></polygon>
                <polygon id="Fill-5" points="77.1436216 383.456504 77.1436216 441.946245 18.6538804 383.456504"></polygon>
                <polygon id="Fill-6" points="363.03167 363.211988 389.35253 363.211988 363.03167 389.532848"></polygon>
                <polygon id="Fill-7" points="383.276186 383.456504 441.765927 383.456504 383.276186 441.946245"></polygon>
                <polygon id="Fill-8" points="363.03167 97.5668661 363.03167 71.2460056 389.35253 97.5668661"></polygon>
                <polygon id="Fill-9" points="383.276186 77.3223497 383.276186 18.8326085 441.765927 77.3223497"></polygon>
                <path d="M243.509777,13.4803503 C243.509777,20.8261505 237.553637,26.7791106 230.211017,26.7791106 C222.865217,26.7791106 216.909077,20.8261505 216.909077,13.4803503 C216.909077,6.13455019 222.865217,0.178410067 230.211017,0.178410067 C237.553637,0.178410067 243.509777,6.13455019 243.509777,13.4803503" id="Fill-10"></path>
                <path d="M13.3000323,217.090349 C20.6458324,217.090349 26.6019726,223.043309 26.6019726,230.389109 C26.6019726,237.734909 20.6458324,243.687869 13.3000323,243.687869 C5.95423212,243.687869 0.00127200003,237.734909 0.00127200003,230.389109 C0.00127200003,223.043309 5.95423212,217.090349 13.3000323,217.090349" id="Fill-13"></path>
                <path d="M216.910031,447.298821 C216.910031,439.953021 222.866171,433.996881 230.211971,433.996881 C237.554591,433.996881 243.510731,439.953021 243.510731,447.298821 C243.510731,454.647802 237.554591,460.600762 230.211971,460.600762 C222.866171,460.600762 216.910031,454.647802 216.910031,447.298821" id="Fill-15"></path>
                <path d="M447.118503,243.688505 C439.772703,243.688505 433.819743,237.735545 433.819743,230.386565 C433.819743,223.043945 439.772703,217.090985 447.118503,217.090985 C454.467484,217.090985 460.420444,223.043945 460.420444,230.386565 C460.420444,237.735545 454.467484,243.688505 447.118503,243.688505" id="Fill-18"></path>
            </g>
        </g>
    </g>
</svg>