<?xml version="1.0" encoding="UTF-8"?>
<svg width="220px" height="220px" viewBox="0 0 220 220" version="1.1" xmlns="http://www.w3.org/2000/svg" xmlns:xlink="http://www.w3.org/1999/xlink">
    <title>snowflake_444</title>
    <g id="Design" stroke="none" stroke-width="1" fill="none" fill-rule="evenodd">
        <g id="Personal" transform="translate(-970.000000, -5993.000000)" fill="#B79A52">
            <g id="snowflake_444" transform="translate(970.000000, 5993.000000)">
                <path d="M165.147822,101.877781 L128.873438,101.877781 L154.542616,76.2086027 L165.147822,101.877781 Z M154.542616,143.335726 L128.933712,117.726822 L165.208096,117.726822 L154.542616,143.335726 Z M117.665493,165.14737 L117.665493,128.872986 L143.334671,154.542164 L117.665493,165.14737 Z M76.2090548,154.542164 L101.817959,128.93326 L101.817959,165.207644 L76.2090548,154.542164 Z M54.3943973,117.666548 L90.6702877,117.666548 L65.0011096,143.335726 L54.3943973,117.666548 Z M65.0011096,76.2086027 L90.6100137,101.817507 L54.3943973,101.877781 L65.0011096,76.2086027 Z M101.878233,54.3954521 L101.878233,90.6713425 L76.2090548,65.0006575 L101.878233,54.3954521 Z M143.334671,65.0006575 L117.725767,90.6095616 L117.725767,54.3351781 L143.334671,65.0006575 Z M175.632479,55.1187397 L164.424534,43.9107945 L155.446726,52.8886027 L117.725767,37.2233973 L117.725767,24.4468219 L101.938507,24.4468219 L101.938507,37.2233973 L64.2175479,52.8886027 L55.1794658,43.8505205 L43.9097397,55.1187397 L52.8890548,64.0980548 L37.2826164,101.877781 L24.5693288,101.817507 L24.5693288,117.726822 L37.3428904,117.726822 L52.8890548,155.446274 L43.9097397,164.425589 L55.1176849,175.632027 L64.097,166.654219 L101.817959,182.320932 L101.817959,195.094493 L117.605219,195.094493 L117.605219,182.320932 L155.326178,166.654219 L164.36426,175.692301 L175.572205,164.485863 L166.59289,155.506548 L182.259603,117.787096 L195.034671,117.787096 L195.034671,101.998329 L182.259603,101.998329 L166.59289,64.2773699 L175.692753,55.1790137 L175.632479,55.1187397 Z" id="Fill-1"></path>
                <polygon id="Fill-2" points="102.553151 7.21826027 107.049589 7.21826027 99.7036986 14.5656575 119.839726 14.5656575 112.492329 7.21826027 116.990274 7.21826027 109.772466 0.000452054795"></polygon>
                <polygon id="Fill-3" points="99.7038493 204.978219 107.051247 212.32411 102.553301 212.32411 109.772616 219.543425 116.988918 212.32411 112.492479 212.32411 119.839877 204.978219"></polygon>
                <polygon id="Fill-4" points="42.641274 42.641274 21.2756575 42.641274 42.641274 21.2756575"></polygon>
                <polygon id="Fill-5" points="176.901699 176.902452 176.901699 198.268068 198.267315 176.902452"></polygon>
                <polygon id="Fill-6" points="176.901699 42.641274 176.901699 21.2756575 198.267315 42.641274"></polygon>
                <polygon id="Fill-7" points="42.641274 176.902452 21.2756575 176.902452 42.641274 198.268068"></polygon>
                <polygon id="Fill-8" points="204.978822 119.839575 212.324712 112.493685 212.324712 116.990123 219.544027 109.770808 212.324712 102.554507 212.324712 107.050945 204.978822 99.7035479"></polygon>
                <polygon id="Fill-9" points="7.21750685 107.050945 7.21750685 102.554507 -0.000301369863 109.770808 7.21750685 116.990123 7.21750685 112.493685 14.5649041 119.839575 14.5649041 99.7035479"></polygon>
            </g>
        </g>
    </g>
</svg>