<?xml version="1.0" encoding="UTF-8"?>
<svg width="220px" height="220px" viewBox="0 0 220 220" version="1.1" xmlns="http://www.w3.org/2000/svg" xmlns:xlink="http://www.w3.org/1999/xlink">
    <title>ac_snowflake_small</title>
    <g id="Design" stroke="none" stroke-width="1" fill="none" fill-rule="evenodd">
        <g id="Start" transform="translate(-490.000000, -5905.000000)">
            <g id="ac_snowflake_small" transform="translate(490.000000, 5905.000000)">
                <polyline id="Stroke-1" stroke="#B79A52" stroke-width="2" points="65.8723064 118.012587 73.9252426 109.959651 65.8723064 101.906715"></polyline>
                <polyline id="Stroke-2" stroke="#B79A52" stroke-width="2" points="80.4734723 118.012587 88.5264085 109.959651 80.4734723 101.906715"></polyline>
                <polyline id="Stroke-3" stroke="#B79A52" stroke-width="2" points="24.8814383 124.387064 39.3087574 109.959745 24.8814383 95.5324255"></polyline>
                <polyline id="Stroke-4" stroke="#B79A52" stroke-width="2" points="154.196409 118.012587 146.143472 109.959651 154.196409 101.906715"></polyline>
                <polyline id="Stroke-5" stroke="#B79A52" stroke-width="2" points="141.260502 118.012587 133.207566 109.959651 141.260502 101.906715"></polyline>
                <polyline id="Stroke-6" stroke="#B79A52" stroke-width="2" points="195.187183 124.387064 180.759864 109.959745 195.187183 95.5324255"></polyline>
                <line x1="-0.000187234043" y1="109.961898" x2="219.996068" y2="109.961898" id="Stroke-7" stroke="#B79A52" stroke-width="2"></line>
                <polyline id="Stroke-10" stroke="#B79A52" stroke-width="2" points="84.4996596 146.882111 84.4996596 135.4936 73.1111489 135.4936"></polyline>
                <polyline id="Stroke-11" stroke="#B79A52" stroke-width="2" points="60.0225532 180.373974 60.0225532 159.971081 39.6196596 159.971081"></polyline>
                <polyline id="Stroke-12" stroke="#B79A52" stroke-width="2" points="146.954757 84.4274809 135.566247 84.4274809 135.566247 73.0389702"></polyline>
                <polyline id="Stroke-13" stroke="#B79A52" stroke-width="2" points="180.446621 59.95 160.043728 59.95 160.043728 39.5471064"></polyline>
                <line x1="32.2282213" y1="187.767847" x2="187.788817" y2="32.2072511" id="Stroke-14" stroke="#B79A52" stroke-width="2"></line>
                <polyline id="Stroke-15" stroke="#B79A52" stroke-width="2" points="118.085234 154.12423 110.032298 146.071294 101.979362 154.12423"></polyline>
                <polyline id="Stroke-16" stroke="#B79A52" stroke-width="2" points="124.459711 195.114536 110.032391 180.687217 95.6050723 195.114536"></polyline>
                <polyline id="Stroke-17" stroke="#B79A52" stroke-width="2" points="118.085234 65.7996596 110.032298 73.8525957 101.979362 65.7996596"></polyline>
                <polyline id="Stroke-18" stroke="#B79A52" stroke-width="2" points="124.459711 24.8092596 110.032391 39.2365787 95.6050723 24.8092596"></polyline>
                <line x1="110.034545" y1="219.996255" x2="110.034545" y2="0" id="Stroke-19" stroke="#B79A52" stroke-width="2"></line>
                <polyline id="Stroke-21" stroke="#B79A52" stroke-width="2" points="146.954757 135.496315 135.566247 135.496315 135.566247 146.884826"></polyline>
                <polyline id="Stroke-22" stroke="#B79A52" stroke-width="2" points="180.446621 159.973889 160.043728 159.973889 160.043728 180.376783"></polyline>
                <polyline id="Stroke-23" stroke="#B79A52" stroke-width="2" points="84.4996596 73.0416851 84.4996596 84.4301957 73.1111489 84.4301957"></polyline>
                <polyline id="Stroke-24" stroke="#B79A52" stroke-width="2" points="60.0225532 39.5494468 60.0225532 59.9523404 39.6196596 59.9523404"></polyline>
                <line x1="187.840494" y1="187.767847" x2="32.2798979" y2="32.2072511" id="Stroke-25" stroke="#B79A52" stroke-width="2"></line>
                <path d="M114.768851,113.578604 L112.033362,110.843115 L115.904426,110.843115 L114.768851,113.578604 Z M110.843489,115.904987 L110.843489,112.043285 L113.578979,114.778774 L110.843489,115.904987 Z M106.417277,114.769413 L109.152766,112.033923 L109.152766,115.904987 L106.417277,114.769413 Z M104.090894,110.843115 L107.953532,110.843115 L105.218043,113.578604 L104.090894,110.843115 Z M105.227404,106.417838 L107.961957,109.153328 L104.090894,109.153328 L105.227404,106.417838 Z M109.152766,104.091455 L109.152766,107.954094 L106.417277,105.227966 L109.152766,104.091455 Z M113.578979,105.227966 L110.843489,107.962519 L110.843489,104.091455 L113.578979,105.227966 Z M115.904426,109.153328 L112.042723,109.153328 L114.778213,106.417838 L115.904426,109.153328 Z M119.085532,110.843115 L119.085532,109.153328 L117.73183,109.153328 L116.068255,105.127796 L117.031574,104.164477 L115.841702,102.973668 L114.877447,103.936987 L110.851915,102.274349 L110.851915,100.911285 L109.152766,100.911285 L109.152766,102.264987 L105.127234,103.936987 L104.173277,102.973668 L102.973106,104.173838 L103.936426,105.136221 L102.264426,109.153328 L100.910723,109.153328 L100.910723,110.843115 L102.264426,110.843115 L103.927064,114.868647 L102.964681,115.832902 L104.154553,117.022774 L105.117872,116.059455 L109.143404,117.72303 L109.143404,119.086094 L110.834128,119.086094 L110.834128,117.732391 L114.85966,116.068817 L115.822979,117.032136 L117.012851,115.841328 L116.050468,114.878009 L117.713106,110.852477 L119.085532,110.852477 L119.085532,110.843115 Z" id="Fill-26" fill="#B79A52"></path>
            </g>
        </g>
    </g>
</svg>