<?xml version="1.0" encoding="UTF-8"?>
<svg width="220px" height="221px" viewBox="0 0 220 221" version="1.1" xmlns="http://www.w3.org/2000/svg" xmlns:xlink="http://www.w3.org/1999/xlink">
    <title>snowflake_3</title>
    <g id="Design" stroke="none" stroke-width="1" fill="none" fill-rule="evenodd">
        <g id="Personal" transform="translate(-1210.000000, -2642.000000)">
            <g id="snowflake_3" transform="translate(1210.000000, 2642.000000)">
                <path d="M147.786559,139.151603 L125.897895,117.262939 L156.876923,117.262939 L147.786559,139.151603 Z M116.371984,157.766988 L116.371984,126.861887 L138.260648,148.750551 L116.371984,157.766988 Z M80.9582186,148.677514 L102.845992,126.789741 L102.845992,157.766988 L80.9582186,148.677514 Z M62.3419433,117.262939 L93.2479352,117.262939 L71.3592713,139.151603 L62.3419433,117.262939 Z M71.431417,81.8491741 L93.320081,103.737838 L62.3419433,103.737838 L71.431417,81.8491741 Z M102.845992,63.2328988 L102.845992,94.138 L80.9582186,72.3232632 L102.845992,63.2328988 Z M138.260648,72.3232632 L116.371984,94.2110364 L116.371984,63.2328988 L138.260648,72.3232632 Z M156.876923,103.737838 L125.970931,103.737838 L147.859595,81.8491741 L156.876923,103.737838 Z M182.32834,117.262939 L182.32834,103.737838 L171.493117,103.737838 L158.185344,71.5234251 L165.89336,63.8145182 L156.367449,54.2886073 L148.658543,61.9966235 L116.44502,48.6897409 L116.44502,37.7814818 L102.845992,37.7814818 L102.845992,48.6167045 L70.6315789,61.9966235 L62.9965992,54.2886073 L53.3976518,63.8875547 L61.105668,71.5955709 L47.725749,103.737838 L36.8905263,103.737838 L36.8905263,117.262939 L47.725749,117.262939 L61.0335223,149.477352 L53.3246154,157.185368 L62.851417,166.711279 L70.5594332,159.004154 L102.773846,172.311036 L102.773846,183.219296 L116.298947,183.219296 L116.298947,172.384073 L148.51336,159.0763 L156.222267,166.784316 L165.748178,157.258405 L158.040162,149.550389 L171.347935,117.335976 L182.32834,117.335976 L182.32834,117.262939 Z" id="Fill-1" fill="#9DB2F6"></path>
                <line x1="109.609166" y1="0.890955466" x2="109.609166" y2="220.109822" id="Stroke-2" stroke="#9DB2F6" stroke-width="2"></line>
                <line x1="32.1037004" y1="32.9949231" x2="187.114632" y2="188.005854" id="Stroke-5" stroke="#9DB2F6" stroke-width="2"></line>
                <polyline id="Stroke-6" stroke="#9DB2F6" stroke-width="2" points="102.846437 196.453142 109.609433 189.690146 116.372429 196.453142"></polyline>
                <polyline id="Stroke-7" stroke="#9DB2F6" stroke-width="2" points="97.4931336 212.929984 109.609166 200.813951 121.725198 212.929984"></polyline>
                <polyline id="Stroke-8" stroke="#9DB2F6" stroke-width="2" points="195.561919 117.263206 188.798923 110.500211 195.561919 103.737215"></polyline>
                <polyline id="Stroke-9" stroke="#9DB2F6" stroke-width="2" points="206.685992 117.263206 199.922996 110.500211 206.685992 103.737215"></polyline>
                <polyline id="Stroke-10" stroke="#9DB2F6" stroke-width="2" points="23.6025263 117.263206 30.3655223 110.500211 23.6025263 103.737215"></polyline>
                <polyline id="Stroke-11" stroke="#9DB2F6" stroke-width="2" points="12.4789879 117.263206 19.2419838 110.500211 12.4789879 103.737215"></polyline>
                <polyline id="Stroke-12" stroke="#9DB2F6" stroke-width="2" points="116.371984 24.5477247 109.608988 31.3107206 102.845992 24.5477247"></polyline>
                <polyline id="Stroke-13" stroke="#9DB2F6" stroke-width="2" points="121.725287 8.07043725 109.609255 20.1864696 97.4932227 8.07043725"></polyline>
                <line x1="219.218688" y1="110.500389" x2="-0.000178137652" y2="110.500389" id="Stroke-14" stroke="#9DB2F6" stroke-width="2"></line>
                <line x1="187.114721" y1="32.9949231" x2="32.1037895" y2="188.005854" id="Stroke-17" stroke="#9DB2F6" stroke-width="2"></line>
                <line x1="109.609166" y1="37.7814818" x2="109.609166" y2="183.219296" id="Stroke-18" stroke="#1E3447" stroke-width="2"></line>
                <line x1="161.029045" y1="59.0805992" x2="58.1892874" y2="161.920356" id="Stroke-19" stroke="#1E3447" stroke-width="2"></line>
                <line x1="182.328162" y1="110.500389" x2="36.8903482" y2="110.500389" id="Stroke-20" stroke="#1E3447" stroke-width="2"></line>
                <line x1="161.029045" y1="161.920267" x2="58.1892874" y2="59.0805101" id="Stroke-21" stroke="#1E3447" stroke-width="2"></line>
                <path d="M178.834972,50.8117166 C176.194081,53.4526073 171.911652,53.4526073 169.270761,50.8117166 C166.62987,48.1708259 166.62987,43.8892874 169.270761,41.2475061 C171.911652,38.6066154 176.194081,38.6066154 178.834972,41.2475061 C181.475862,43.8892874 181.475862,48.1708259 178.834972,50.8117166 Z" id="Stroke-22" stroke="#9DB2F6" stroke-width="2"></path>
                <path d="M49.9479271,179.69885 C52.5888178,177.05796 52.5888178,172.776421 49.9479271,170.13464 C47.3070364,167.493749 43.0246073,167.493749 40.3837166,170.13464 C37.7428259,172.776421 37.7428259,177.05796 40.3837166,179.69885 C43.0246073,182.339741 47.3070364,182.339741 49.9479271,179.69885 Z" id="Stroke-24" stroke="#9DB2F6" stroke-width="2"></path>
                <path d="M169.270939,179.69885 C166.630049,177.05796 166.630049,172.776421 169.270939,170.13464 C171.91183,167.493749 176.193368,167.493749 178.83515,170.13464 C181.47604,172.776421 181.47604,177.05796 178.83515,179.69885 C176.193368,182.339741 171.91183,182.339741 169.270939,179.69885 Z" id="Stroke-26" stroke="#9DB2F6" stroke-width="2"></path>
                <path d="M40.3834494,50.8117166 C43.0243401,53.4526073 47.3067692,53.4526073 49.9476599,50.8117166 C52.5885506,48.1708259 52.5885506,43.8892874 49.9476599,41.2475061 C47.3067692,38.6066154 43.0243401,38.6066154 40.3834494,41.2475061 C37.7425587,43.8892874 37.7425587,48.1708259 40.3834494,50.8117166 Z" id="Stroke-28" stroke="#9DB2F6" stroke-width="2"></path>
            </g>
        </g>
    </g>
</svg>