<?xml version="1.0" encoding="UTF-8"?>
<svg width="652px" height="652px" viewBox="0 0 652 652" version="1.1" xmlns="http://www.w3.org/2000/svg" xmlns:xlink="http://www.w3.org/1999/xlink">
    <title>ac_snowflake_33</title>
    <g id="Design" stroke="none" stroke-width="1" fill="none" fill-rule="evenodd">
        <g id="Start" transform="translate(-875.000000, -4305.000000)">
            <g id="ac_snowflake_33" transform="translate(1201.000000, 4631.000000) rotate(-45.000000) translate(-1201.000000, -4631.000000) translate(971.000000, 4401.000000)">
                <polyline id="Stroke-1" stroke="#9DB2F6" stroke-width="2" points="137.733004 246.753591 154.570962 229.915634 137.733004 213.077677"></polyline>
                <polyline id="Stroke-2" stroke="#9DB2F6" stroke-width="2" points="168.262715 246.753591 185.100672 229.915634 168.262715 213.077677"></polyline>
                <polyline id="Stroke-3" stroke="#9DB2F6" stroke-width="2" points="52.0248255 260.082043 82.1910383 229.91583 52.0248255 199.749617"></polyline>
                <polyline id="Stroke-4" stroke="#9DB2F6" stroke-width="2" points="322.410672 246.753591 305.572715 229.915634 322.410672 213.077677"></polyline>
                <polyline id="Stroke-5" stroke="#9DB2F6" stroke-width="2" points="295.362868 246.753591 278.524911 229.915634 295.362868 213.077677"></polyline>
                <polyline id="Stroke-6" stroke="#9DB2F6" stroke-width="2" points="408.118655 260.082043 377.952443 229.91583 408.118655 199.749617"></polyline>
                <line x1="-0.000391489362" y1="229.920332" x2="459.991779" y2="229.920332" id="Stroke-7" stroke="#9DB2F6" stroke-width="2"></line>
                <polyline id="Stroke-10" stroke="#9DB2F6" stroke-width="2" points="176.681106 307.11714 176.681106 283.3048 152.868766 283.3048"></polyline>
                <polyline id="Stroke-11" stroke="#9DB2F6" stroke-width="2" points="125.501702 377.145583 125.501702 334.484987 82.8411064 334.484987"></polyline>
                <polyline id="Stroke-12" stroke="#9DB2F6" stroke-width="2" points="307.269038 176.530187 283.456698 176.530187 283.456698 152.717847"></polyline>
                <polyline id="Stroke-13" stroke="#9DB2F6" stroke-width="2" points="377.297481 125.35 334.636885 125.35 334.636885 82.6894043"></polyline>
                <line x1="67.3862809" y1="392.605498" x2="392.649345" y2="67.342434" id="Stroke-14" stroke="#9DB2F6" stroke-width="2"></line>
                <polyline id="Stroke-15" stroke="#9DB2F6" stroke-width="2" points="246.905489 322.259753 230.067532 305.421796 213.229574 322.259753"></polyline>
                <polyline id="Stroke-16" stroke="#9DB2F6" stroke-width="2" points="260.23394 407.966757 230.067728 377.800545 199.901515 407.966757"></polyline>
                <polyline id="Stroke-17" stroke="#9DB2F6" stroke-width="2" points="246.905489 137.581106 230.067532 154.419064 213.229574 137.581106"></polyline>
                <polyline id="Stroke-18" stroke="#9DB2F6" stroke-width="2" points="260.23394 51.8739064 230.067728 82.0401191 199.901515 51.8739064"></polyline>
                <line x1="230.07223" y1="459.99217" x2="230.07223" y2="0" id="Stroke-19" stroke="#9DB2F6" stroke-width="2"></line>
                <polyline id="Stroke-21" stroke="#9DB2F6" stroke-width="2" points="307.269038 283.310477 283.456698 283.310477 283.456698 307.122817"></polyline>
                <polyline id="Stroke-22" stroke="#9DB2F6" stroke-width="2" points="377.297481 334.49086 334.636885 334.49086 334.636885 377.151455"></polyline>
                <polyline id="Stroke-23" stroke="#9DB2F6" stroke-width="2" points="176.681106 152.723523 176.681106 176.535864 152.868766 176.535864"></polyline>
                <polyline id="Stroke-24" stroke="#9DB2F6" stroke-width="2" points="125.501702 82.6942979 125.501702 125.354894 82.8411064 125.354894"></polyline>
                <line x1="392.757396" y1="392.605498" x2="67.4943319" y2="67.342434" id="Stroke-25" stroke="#9DB2F6" stroke-width="2"></line>
                <path d="M235.24982,233.939425 L232.239621,230.929226 L236.499433,230.929226 L235.24982,233.939425 Z M230.930257,236.499433 L230.930257,232.249923 L233.940455,235.260122 L230.930257,236.499433 Z M226.059545,235.24982 L229.069743,232.239621 L229.069743,236.499433 L226.059545,235.24982 Z M223.499536,230.929226 L227.750077,230.929226 L224.739878,233.939425 L223.499536,230.929226 Z M224.75018,226.059545 L227.759349,229.069743 L223.499536,229.069743 L224.75018,226.059545 Z M229.069743,223.499536 L229.069743,227.750077 L226.059545,224.75018 L229.069743,223.499536 Z M233.940455,224.75018 L230.930257,227.759349 L230.930257,223.499536 L233.940455,224.75018 Z M236.499433,229.069743 L232.249923,229.069743 L235.260122,226.059545 L236.499433,229.069743 Z M240,230.929226 L240,229.069743 L238.510353,229.069743 L236.679716,224.639951 L237.739775,223.579891 L236.430411,222.269496 L235.369321,223.329556 L230.939528,221.499948 L230.939528,220 L229.069743,220 L229.069743,221.489647 L224.639951,223.329556 L223.590193,222.269496 L222.269496,223.590193 L223.329556,224.649222 L221.489647,229.069743 L220,229.069743 L220,230.929226 L221.489647,230.929226 L223.319254,235.359019 L222.260225,236.420109 L223.569589,237.729474 L224.629649,236.669414 L229.059442,238.500052 L229.059442,240 L230.919955,240 L230.919955,238.510353 L235.349748,236.679716 L236.409807,237.739775 L237.719172,236.429381 L236.660142,235.369321 L238.48975,230.939528 L240,230.939528 L240,230.929226 Z" id="Fill-26" fill="#9DB2F6"></path>
            </g>
        </g>
    </g>
</svg>