<?xml version="1.0" encoding="UTF-8"?>
<svg width="220px" height="220px" viewBox="0 0 220 220" version="1.1" xmlns="http://www.w3.org/2000/svg" xmlns:xlink="http://www.w3.org/1999/xlink">
    <title>Fill 1</title>
    <g id="Design" stroke="none" stroke-width="1" fill="none" fill-rule="evenodd">
        <g id="Personal" transform="translate(-10.000000, -4020.000000)" fill="#9DB2F6">
            <path d="M112.443275,4020 L112.443275,4060.84596 L76.4442935,4075.79857 L67.9119042,4067.18566 L57.1853487,4077.91228 L65.7982052,4086.5252 L50.8471255,4122.44251 L10,4122.44251 L10,4137.55893 L50.8471255,4137.55893 L65.717738,4173.55671 L57.1034447,4182.16962 L67.749533,4192.81578 L76.3623895,4184.20287 L112.361371,4199.07214 L112.361371,4240 L127.476258,4240 L127.476258,4199.15404 L163.473802,4184.28333 L172.088096,4192.89768 L182.734184,4182.25153 L174.119891,4173.63861 L188.990503,4137.6394 L230,4137.6394 L230,4122.44251 L189.152874,4122.44251 L174.282262,4086.44329 L182.895118,4077.83038 L172.250467,4067.18566 L163.636174,4075.79857 L127.638629,4060.92786 L127.638629,4020 L112.443275,4020 Z M127.556725,4077.18089 L152.017295,4087.33706 L127.556725,4111.79779 L127.556725,4077.18089 Z M87.9827048,4087.33706 L112.443275,4077.18089 L112.443275,4111.71588 L87.9827048,4087.33706 Z M162.742414,4097.98465 L172.819485,4122.44251 L138.283281,4122.44251 L162.742414,4097.98465 Z M77.3394903,4097.98465 L101.797186,4122.44251 L67.1805155,4122.44251 L77.3394903,4097.98465 Z M138.202814,4137.55893 L172.819485,4137.55893 L162.661947,4162.01679 L138.202814,4137.55893 Z M67.1805155,4137.55893 L101.716719,4137.55893 L77.2575862,4162.01679 L67.1805155,4137.55893 Z M87.9827048,4172.66294 L112.443275,4148.20365 L112.443275,4182.82055 L87.9827048,4172.66294 Z M127.556725,4148.28412 L152.017295,4172.74485 L127.556725,4182.82055 L127.556725,4148.28412 Z" id="Fill-1"></path>
        </g>
    </g>
</svg>