<?xml version="1.0" encoding="UTF-8"?>
<svg width="220px" height="221px" viewBox="0 0 220 221" version="1.1" xmlns="http://www.w3.org/2000/svg" xmlns:xlink="http://www.w3.org/1999/xlink">
    <title>snowflake_2</title>
    <g id="Design" stroke="none" stroke-width="1" fill="none" fill-rule="evenodd">
        <g id="Personal" transform="translate(-490.000000, -1024.000000)">
            <g id="snowflake_2" transform="translate(490.000000, 1024.000000)">
                <path d="M147.78647,139.151603 L125.897806,117.262939 L156.876834,117.262939 L147.78647,139.151603 Z M116.371895,157.766988 L116.371895,126.861887 L138.260559,148.750551 L116.371895,157.766988 Z M80.9581296,148.677514 L102.845903,126.789741 L102.845903,157.766988 L80.9581296,148.677514 Z M62.3418543,117.262939 L93.2478462,117.262939 L71.3591822,139.151603 L62.3418543,117.262939 Z M71.4322186,81.8491741 L93.3199919,103.737838 L62.3418543,103.737838 L71.4322186,81.8491741 Z M102.845903,63.2328988 L102.845903,94.138 L80.9581296,72.3232632 L102.845903,63.2328988 Z M138.260559,72.3232632 L116.371895,94.2110364 L116.371895,63.2328988 L138.260559,72.3232632 Z M156.876834,103.737838 L125.970842,103.737838 L147.859506,81.8491741 L156.876834,103.737838 Z M182.328251,117.262939 L182.328251,103.737838 L171.493028,103.737838 L158.185255,71.5234251 L165.893271,63.8145182 L156.36736,54.2886073 L148.659344,61.9966235 L116.444931,48.6897409 L116.444931,37.7814818 L102.845903,37.7814818 L102.845903,48.6167045 L70.6314899,61.9966235 L62.9965101,54.2886073 L53.3975628,63.8875547 L61.1055789,71.5955709 L47.7256599,103.737838 L36.8904372,103.737838 L36.8904372,117.262939 L47.7256599,117.262939 L61.0334332,149.477352 L53.3245263,157.186259 L62.8513279,166.711279 L70.5593441,159.004154 L102.773757,172.311036 L102.773757,183.219296 L116.298858,183.219296 L116.298858,172.384073 L148.513271,159.0763 L156.222178,166.784316 L165.748089,157.258405 L158.040073,149.550389 L171.347846,117.335976 L182.328251,117.335976 L182.328251,117.262939 Z" id="Fill-1" fill="#B79A52"></path>
                <line x1="109.609077" y1="0.890955466" x2="109.609077" y2="220.109822" id="Stroke-2" stroke="#B79A52" stroke-width="2"></line>
                <line x1="32.1039676" y1="32.994834" x2="187.114899" y2="188.005765" id="Stroke-5" stroke="#B79A52" stroke-width="2"></line>
                <polyline id="Stroke-6" stroke="#B79A52" stroke-width="2" points="116.37234 24.5477247 109.609344 31.3107206 102.846348 24.5477247"></polyline>
                <polyline id="Stroke-7" stroke="#B79A52" stroke-width="2" points="121.725198 8.07043725 109.609166 20.1864696 97.4931336 8.07043725"></polyline>
                <polyline id="Stroke-8" stroke="#B79A52" stroke-width="2" points="53.6136437 44.9404777 53.6136437 54.5046883 44.0494332 54.5046883"></polyline>
                <polyline id="Stroke-9" stroke="#B79A52" stroke-width="2" points="45.7478866 29.5043158 45.7478866 46.6384858 28.6128259 46.6384858"></polyline>
                <polyline id="Stroke-10" stroke="#B79A52" stroke-width="2" points="23.6568583 103.73766 30.4198543 110.500656 23.6568583 117.263652"></polyline>
                <polyline id="Stroke-11" stroke="#B79A52" stroke-width="2" points="7.17948178 98.3843563 19.2955142 110.500389 7.17948178 122.616421"></polyline>
                <polyline id="Stroke-12" stroke="#B79A52" stroke-width="2" points="44.0496113 166.495911 53.6138219 166.495911 53.6138219 176.060121"></polyline>
                <polyline id="Stroke-13" stroke="#B79A52" stroke-width="2" points="28.613004 174.361668 45.7480648 174.361668 45.7480648 191.496729"></polyline>
                <polyline id="Stroke-14" stroke="#B79A52" stroke-width="2" points="102.846348 196.453142 109.609344 189.690146 116.37234 196.453142"></polyline>
                <polyline id="Stroke-15" stroke="#B79A52" stroke-width="2" points="97.4930445 212.929984 109.609077 200.813951 121.725109 212.929984"></polyline>
                <polyline id="Stroke-16" stroke="#B79A52" stroke-width="2" points="165.605045 176.059943 165.605045 166.495733 175.169255 166.495733"></polyline>
                <polyline id="Stroke-17" stroke="#B79A52" stroke-width="2" points="173.470713 191.496551 173.470713 174.36149 190.605773 174.36149"></polyline>
                <polyline id="Stroke-18" stroke="#B79A52" stroke-width="2" points="195.56183 117.263206 188.798834 110.500211 195.56183 103.737215"></polyline>
                <polyline id="Stroke-19" stroke="#B79A52" stroke-width="2" points="212.039117 122.61651 199.923085 110.500478 212.039117 98.3844453"></polyline>
                <polyline id="Stroke-20" stroke="#B79A52" stroke-width="2" points="175.169077 54.5045101 165.604866 54.5045101 165.604866 44.9402996"></polyline>
                <polyline id="Stroke-21" stroke="#B79A52" stroke-width="2" points="190.605595 46.638753 173.470534 46.638753 173.470534 29.504583"></polyline>
                <line x1="219.218599" y1="110.500389" x2="-0.000267206478" y2="110.500389" id="Stroke-22" stroke="#B79A52" stroke-width="2"></line>
                <line x1="187.114632" y1="32.994834" x2="32.1037004" y2="188.005765" id="Stroke-25" stroke="#B79A52" stroke-width="2"></line>
                <line x1="109.609077" y1="37.7814818" x2="109.609077" y2="183.219296" id="Stroke-26" stroke="#1E3447" stroke-width="2"></line>
                <line x1="161.029401" y1="59.0805992" x2="58.1896437" y2="161.920356" id="Stroke-27" stroke="#1E3447" stroke-width="2"></line>
                <line x1="182.328073" y1="110.500389" x2="36.8902591" y2="110.500389" id="Stroke-28" stroke="#1E3447" stroke-width="2"></line>
                <line x1="161.029401" y1="161.920267" x2="58.1896437" y2="59.0805101" id="Stroke-29" stroke="#1E3447" stroke-width="2"></line>
            </g>
        </g>
    </g>
</svg>