<?xml version="1.0" encoding="UTF-8"?>
<svg width="222px" height="635px" viewBox="0 0 222 635" version="1.1" xmlns="http://www.w3.org/2000/svg" xmlns:xlink="http://www.w3.org/1999/xlink">
    <title>ornament_name_4.5</title>
    <defs>
        <path d="M219.784183,523.970211 C219.784183,584.662324 170.583197,633.86331 109.892634,633.86331 C49.2005211,633.86331 -0.000464788732,584.662324 -0.000464788732,523.970211 C-0.000464788732,463.278099 49.2005211,414.078662 109.892634,414.078662 C170.583197,414.078662 219.784183,463.278099 219.784183,523.970211 Z" id="path-1"></path>
    </defs>
    <g id="Design" stroke="none" stroke-width="1" fill="none" fill-rule="evenodd">
        <g id="ornament_name_4.5" transform="translate(1.000000, 0.000000)">
            <polyline id="Stroke-3" stroke="#4064D6" stroke-width="2" fill="#4064D6" points="78.911831 418.594704 78.911831 395.403296 140.872817 395.403296 140.872817 418.594704"></polyline>
            <path d="M98.0434648,395.402986 C97.662338,394.210028 97.457831,392.939606 97.457831,391.619606 C97.457831,384.751577 103.024451,379.184958 109.892479,379.184958 C116.758958,379.184958 122.327127,384.751577 122.327127,391.619606 C122.327127,392.939606 122.12107,394.210028 121.739944,395.402986" id="Stroke-5" stroke="#4064D6" stroke-width="2"></path>
            <line x1="109.892479" y1="379.185268" x2="110" y2="4.05009034e-13" id="Stroke-7" stroke="#4064D6" stroke-width="2"></line>
            <mask id="mask-2" fill="white">
                <use xlink:href="#path-1"></use>
            </mask>
            <use id="Stroke-1" stroke="#4064D6" stroke-width="2" fill="#6685E8" xlink:href="#path-1"></use>
            <g id="Group-12" mask="url(#mask-2)" stroke="#4064D6" stroke-width="2">
                <g transform="translate(109.347884, 451.869364) rotate(-180.000000) translate(-109.347884, -451.869364) translate(-0.652116, 428.869364)">
                    <path d="M0,16.130636 C6.09611575,24.8921033 19.4821146,28.2254367 40.1579964,26.130636 C71.1718192,22.988435 80.4957681,2.84217094e-13 110.715585,2.84217094e-13 C140.935403,2.84217094e-13 156.878841,19.664 183.102184,11.9841858 C200.584412,6.8643097 212.883684,8.24645975 220,16.130636" id="Path"></path>
                    <path d="M0,35.130636 C6.09611575,43.8921033 19.4821146,47.2254367 40.1579964,45.130636 C71.1718192,41.988435 80.4957681,19 110.715585,19 C140.935403,19 156.878841,38.664 183.102184,30.9841858 C200.584412,25.8643097 212.883684,27.2464598 220,35.130636" id="Path-Copy"></path>
                </g>
            </g>
            <g id="Group-12-Copy" mask="url(#mask-2)" stroke="#4064D6" stroke-width="2">
                <g transform="translate(109.347884, 594.869364) scale(-1, -1) rotate(-180.000000) translate(-109.347884, -594.869364) translate(-0.652116, 571.869364)">
                    <path d="M0,16.130636 C6.09611575,24.8921033 19.4821146,28.2254367 40.1579964,26.130636 C71.1718192,22.988435 80.4957681,2.84217094e-13 110.715585,2.84217094e-13 C140.935403,2.84217094e-13 156.878841,19.664 183.102184,11.9841858 C200.584412,6.8643097 212.883684,8.24645975 220,16.130636" id="Path"></path>
                    <path d="M0,35.130636 C6.09611575,43.8921033 19.4821146,47.2254367 40.1579964,45.130636 C71.1718192,41.988435 80.4957681,19 110.715585,19 C140.935403,19 156.878841,38.664 183.102184,30.9841858 C200.584412,25.8643097 212.883684,27.2464598 220,35.130636" id="Path-Copy"></path>
                </g>
            </g>
        </g>
    </g>
</svg>