<?xml version="1.0" encoding="UTF-8"?>
<svg width="146px" height="69px" viewBox="0 0 146 69" version="1.1" xmlns="http://www.w3.org/2000/svg" xmlns:xlink="http://www.w3.org/1999/xlink">
    <title>candy_cane</title>
    <g id="Design" stroke="none" stroke-width="1" fill="none" fill-rule="evenodd">
        <g id="Personal" transform="translate(-185.000000, -6519.000000)" stroke="#4064D6" stroke-width="2">
            <g id="gift_section" transform="translate(0.000000, 6520.000000)">
                <g id="candy_cane" transform="translate(258.000000, 33.000000) rotate(-90.000000) translate(-258.000000, -33.000000) translate(225.000000, -39.000000)">
                    <path d="M17.8376007,32.8804283 C17.8376007,24.5858334 24.585655,17.8377791 32.88025,17.8377791 C36.4448447,17.8377791 39.7216556,19.0858332 42.3021963,21.1657252 L54.944467,8.52345439 C50.2715479,4.28637314 44.3797099,1.37167032 37.864142,0.376913528 L-0.000237837847,38.2412934 L-0.000237837847,63.4675647 L17.8376007,45.6297261 L17.8376007,32.8804283 Z" id="Stroke-1" fill="#4064D6"></path>
                    <path d="M56.8422347,49.6765966 C61.7678565,49.6765966 65.761154,45.6832991 65.761154,40.7576773 L65.761154,32.8804878 C65.761154,29.8486498 65.340181,26.91492 64.5683972,24.1256766 L47.92391,40.7701638 C47.9310451,45.6898397 51.9213696,49.6765966 56.8422347,49.6765966 Z" id="Stroke-3" fill="#4064D6"></path>
                    <polygon id="Stroke-5" fill="#4064D6" points="17.8376007 70.8564136 -0.000237837847 88.6942522 -0.000237837847 113.920523 17.8376007 96.0826849"></polygon>
                    <path d="M0.874827062,138.272622 C2.30898928,141.277703 5.3669894,143.359379 8.91850306,143.359379 C13.8441249,143.359379 17.8374223,139.366081 17.8374223,134.440459 L17.8374223,121.309432 L0.874827062,138.272622 Z" id="Stroke-7" fill="#4064D6"></path>
                    <polygon id="Stroke-9" fill="#6685E8" points="17.8376007 45.629964 -0.000237837847 63.4678025 -0.000237837847 88.6940738 17.8376007 70.8562352"></polygon>
                    <path d="M47.9233154,32.8804283 L47.9233154,40.7576178 C47.9233154,40.76178 47.92391,40.7659422 47.92391,40.7701043 L64.5683972,24.1256172 C62.8845052,18.0387521 59.4976943,12.6517248 54.9448833,8.52345439 L42.3020179,21.1657252 C45.7268829,23.9252388 47.9233154,28.1498336 47.9233154,32.8804283 Z" id="Stroke-11" fill="#6685E8"></path>
                    <path d="M32.8801905,-0.000237837847 C14.7498114,-0.000237837847 -0.000297297309,14.7498709 -0.000297297309,32.88025 L-0.000297297309,38.241115 L37.8640826,0.377329745 C36.2384609,0.128789194 34.5741906,-0.000237837847 32.8801905,-0.000237837847 Z" id="Stroke-13" fill="#6685E8"></path>
                    <path d="M17.8376007,96.0828633 L-0.000237837847,113.920702 L-0.000237837847,134.440162 C-0.000237837847,135.81427 0.319654067,137.109892 0.87500544,138.272919 L17.8376007,121.309135 L17.8376007,96.0828633 Z" id="Stroke-15" fill="#6685E8"></path>
                </g>
            </g>
        </g>
    </g>
</svg>