<?xml version="1.0" encoding="UTF-8"?>
<svg width="81px" height="150px" viewBox="0 0 81 150" version="1.1" xmlns="http://www.w3.org/2000/svg" xmlns:xlink="http://www.w3.org/1999/xlink">
    <title>gift_2</title>
    <g id="Design" stroke="none" stroke-width="1" fill="none" fill-rule="evenodd">
        <g id="Personal" transform="translate(-317.000000, -6581.000000)">
            <g id="gift_section" transform="translate(0.000000, 6520.000000)">
                <g id="gift_2" transform="translate(317.000000, 61.000000)">
                    <polygon id="Stroke-1" stroke="#4064D6" stroke-width="2" fill="#1E3447" points="0.999 148.067 79.509 148.067 79.509 35.239 0.999 35.239"></polygon>
                    <path d="M37.3293,0 L37.3293,4.686 L23.3973,10.473 L20.0943,7.139 L15.9423,11.291 L19.2773,14.624 L13.4903,28.525 L8.8043,28.525 L8.8043,34.376 L13.4903,34.376 L19.8113,34.376 L33.1783,34.376 L47.2993,34.376 L60.6973,34.376 L71.7053,34.376 L71.7053,28.525 L67.0193,28.525 L61.2633,14.593 L64.5973,11.259 L60.4773,7.139 L57.1443,10.473 L43.2113,4.717 L43.2113,0 L37.3293,0 Z M43.1793,11.007 L52.6463,14.939 L43.1793,24.405 L43.1793,11.007 Z M27.8633,14.939 L37.3293,11.007 L37.3293,24.374 L27.8633,14.939 Z M56.7973,19.058 L60.6973,28.525 L47.3323,28.525 L56.7973,19.058 Z M23.7433,19.058 L33.2103,28.525 L19.8113,28.525 L23.7433,19.058 Z" id="Fill-3" fill="#4064D6"></path>
                    <polygon id="Fill-4" fill="#4064D6" points="37.2987 148.0671 43.1797 148.0671 43.1797 34.8231 37.2987 34.7911"></polygon>
                    <polygon id="Fill-5" fill="#4064D6" points="0.9684 88.7121 0.9684 94.5941 79.4874 94.5941 79.5094 88.7121"></polygon>
                </g>
            </g>
        </g>
    </g>
</svg>