<?xml version="1.0" encoding="UTF-8"?>
<svg width="981px" height="490px" viewBox="0 0 981 490" version="1.1" xmlns="http://www.w3.org/2000/svg" xmlns:xlink="http://www.w3.org/1999/xlink">
    <title>gift</title>
    <defs>
        <rect id="path-1" x="0" y="0" width="290" height="81"></rect>
    </defs>
    <g id="Design" stroke="none" stroke-width="1" fill="none" fill-rule="evenodd">
        <g id="Personal" transform="translate(-230.000000, -7479.000000)">
            <g id="gift_section" transform="translate(0.000000, 6520.000000)">
                <g id="gift_stamp" transform="translate(10.000000, 803.000000)">
                    <g id="gift" transform="translate(221.000000, 156.000000)">
                        <rect id="Rectangle" fill="#6685E8" x="0" y="258.5" width="978" height="14"></rect>
                        <rect id="Rectangle" fill="#6685E8" transform="translate(601.000000, 285.500000) rotate(-270.000000) translate(-601.000000, -285.500000) " x="396.5" y="278.5" width="409" height="14"></rect>
                        <g id="bow" transform="translate(456.000000, 0.000000)">
                            <mask id="mask-2" fill="white">
                                <use xlink:href="#path-1"></use>
                            </mask>
                            <g id="Rectangle"></g>
                            <path d="M183.849575,103.155758 L161.576167,80.8821538 L193.099411,80.8821538 L183.849575,103.155758 Z M151.881439,122.100491 L151.881439,90.6489368 L174.156154,112.92385 L151.881439,122.100491 Z M115.843846,112.849264 L138.117253,90.5756598 L138.117253,122.100491 L115.843846,112.849264 Z M96.9005888,80.8821538 L128.349248,80.8821538 L106.07584,103.155758 L96.9005888,80.8821538 Z M106.150425,44.8442421 L128.423833,67.1178462 L96.9005888,67.1178462 L106.150425,44.8442421 Z M138.117253,25.8995093 L138.117253,57.3497547 L115.843846,35.1494275 L138.117253,25.8995093 Z M174.156154,35.1494275 L151.881439,57.4243402 L151.881439,25.8995093 L174.156154,35.1494275 Z M193.099411,67.1178462 L161.649444,67.1178462 L183.92416,44.8442421 L193.099411,67.1178462 Z M219,80.8821538 L219,67.1178462 L207.973211,67.1178462 L194.431471,34.3355289 L202.275971,26.4909597 L192.581242,16.7974537 L184.738051,24.6420229 L151.956024,11.098855 L151.956024,0 L138.117253,0 L138.117253,11.025578 L105.336534,24.6420229 L97.5666189,16.7974537 L87.7986137,26.5655453 L95.641805,34.4101145 L82.026789,67.1178462 L71,67.1178462 L71,80.8821538 L82.026789,80.8821538 L95.5685286,113.663163 L87.7240288,121.507732 L97.4187576,131.202546 L105.261949,123.356669 L138.043976,136.899836 L138.043976,148 L151.808162,148 L151.808162,136.974422 L184.588881,123.431254 L192.433381,131.275823 L202.126801,121.581009 L194.28361,113.737748 L207.82535,80.9554308 L219,80.9554308 L219,80.8821538 Z" id="Fill-1" fill="#6685E8" mask="url(#mask-2)"></path>
                        </g>
                        <rect id="Rectangle" stroke="#6685E8" stroke-width="2" x="0" y="81" width="979" height="408"></rect>
                    </g>
                </g>
            </g>
        </g>
    </g>
</svg>