<?xml version="1.0" encoding="UTF-8"?>
<svg width="101px" height="101px" viewBox="0 0 101 101" version="1.1" xmlns="http://www.w3.org/2000/svg" xmlns:xlink="http://www.w3.org/1999/xlink">
    <title>gift_3</title>
    <g id="Design" stroke="none" stroke-width="1" fill="none" fill-rule="evenodd">
        <g id="Personal" transform="translate(-421.000000, -6640.000000)">
            <g id="gift_section" transform="translate(0.000000, 6520.000000)">
                <g id="gift_3" transform="translate(422.000000, 121.000000)">
                    <path d="M98.6471,49.32335 C98.6471,76.56385 76.5641,98.64685 49.3241,98.64685 C22.0831,98.64685 0.0001,76.56385 0.0001,49.32335 C0.0001,22.08285 22.0831,-0.00015 49.3241,-0.00015 C76.5641,-0.00015 98.6471,22.08285 98.6471,49.32335 Z" id="Stroke-1" stroke="#4064D6" stroke-width="2" fill="#6685E8"></path>
                    <path d="M64.1686,60.4342 L55.6576,51.9232 L67.7031,51.9232 L64.1686,60.4342 Z M51.9531,67.6732 L51.9531,55.6557 L60.4646,64.1667 L51.9531,67.6732 Z M38.1826,64.1382 L46.6941,55.6272 L46.6941,67.6732 L38.1826,64.1382 Z M30.9441,51.9232 L42.9616,51.9232 L34.4501,60.4342 L30.9441,51.9232 Z M34.4786,38.1527 L42.9901,46.6637 L30.9441,46.6637 L34.4786,38.1527 Z M46.6941,30.9137 L46.6941,42.9312 L38.1826,34.4482 L46.6941,30.9137 Z M60.4646,34.4482 L51.9531,42.9597 L51.9531,30.9137 L60.4646,34.4482 Z M67.7031,46.6637 L55.6856,46.6637 L64.1971,38.1527 L67.7031,46.6637 Z M98.6471,51.9232 L98.6471,46.6637 L73.3871,46.6637 L68.2121,34.1372 L71.2096,31.1402 L67.5056,27.4357 L64.5081,30.4332 L51.9816,25.2582 L51.9816,-0.0003 L46.6941,-0.0003 L46.6941,25.2302 L34.1676,30.4332 L31.1986,27.4357 L27.4661,31.1682 L30.4636,34.1657 L25.2606,46.6637 L0.0001,46.6637 L0.0001,51.9232 L25.2606,51.9232 L30.4351,64.4492 L27.4376,67.4467 L31.1421,71.1512 L34.1391,68.1537 L46.6656,73.3282 L46.6656,98.6472 L51.9251,98.6472 L51.9251,73.3567 L64.4511,68.1822 L67.4491,71.1792 L71.1531,67.4752 L68.1556,64.4777 L73.3301,51.9512 L98.6471,51.9512 L98.6471,51.9232 Z" id="Fill-3" fill="#4064D6"></path>
                </g>
            </g>
        </g>
    </g>
</svg>