<?xml version="1.0" encoding="UTF-8"?>
<svg width="971px" height="487px" viewBox="0 0 971 487" version="1.1" xmlns="http://www.w3.org/2000/svg" xmlns:xlink="http://www.w3.org/1999/xlink">
    <title>Stroke 16</title>
    <g id="Design" stroke="none" stroke-width="1" fill="none" fill-rule="evenodd">
        <g id="Personal" transform="translate(0.000000, -6738.000000)" stroke="#4064D6" stroke-width="2">
            <g id="gift_section" transform="translate(0.000000, 6520.000000)">
                <path d="M0,219 L562.273445,219 C589.184085,219 611,240.714059 611,267.499727 C611,294.285941 589.184085,316 562.273445,316 L378.77192,316 C351.836226,316 330,337.714059 330,364.500273 C330,391.285941 351.836226,413 378.77192,413 L902.944472,413 C939.977814,413 970,442.996741 970,479.999623 C970,517.003259 939.977814,547 902.944472,547 L295.521711,547 C252.15584,547 217,582.145435 217,625.500441 C217,668.854565 252.15584,704 295.521711,704 L951,704" id="Stroke-16"></path>
            </g>
        </g>
    </g>
</svg>