<?xml version="1.0" encoding="UTF-8"?>
<svg width="295px" height="155px" viewBox="0 0 295 155" version="1.1" xmlns="http://www.w3.org/2000/svg" xmlns:xlink="http://www.w3.org/1999/xlink">
    <title>gift_1</title>
    <g id="Design" stroke="none" stroke-width="1" fill="none" fill-rule="evenodd">
        <g id="Personal" transform="translate(-10.000000, -6585.000000)">
            <g id="gift_section" transform="translate(0.000000, 6520.000000)">
                <g id="gift_1" transform="translate(157.000000, 143.000000) rotate(-270.000000) translate(-157.000000, -143.000000) translate(80.000000, -4.000000)">
                    <polygon id="Stroke-2" stroke="#4064D6" stroke-width="2" fill="#6685E8" points="0 293 153 293 153 0 0 0"></polygon>
                    <path d="M71.2925,0.0002 L71.2925,144.9742 L46.2405,155.3802 L40.3025,149.3852 L32.8385,156.8502 L38.8325,162.8442 L28.4265,187.8412 L-0.0005,187.8412 L-0.0005,198.3592 L28.4265,198.3592 L38.7755,223.4122 L32.7815,229.4062 L40.1895,236.8152 L46.1835,230.8202 L71.2365,241.1692 L71.2365,293.4282 L81.7555,293.4282 L81.7555,241.2262 L106.8085,230.8772 L112.8025,236.8722 L120.2115,229.4632 L114.2175,223.4682 L124.5655,198.4162 L153.1055,198.4162 L153.1055,198.3592 L153.1055,187.8412 L124.6785,187.8412 L114.3295,162.7882 L120.3245,156.7942 L112.9155,149.3852 L106.9205,155.3802 L81.8685,145.0312 L81.8685,0.0002 L71.2925,0.0002 Z M81.8115,156.3412 L98.8345,163.4092 L81.8115,180.4322 L81.8115,156.3412 Z M54.2705,163.4092 L71.2925,156.3412 L71.2925,180.3752 L54.2705,163.4092 Z M106.2985,170.8182 L113.3115,187.8412 L89.2775,187.8412 L106.2985,170.8182 Z M46.8625,170.8182 L63.8845,187.8412 L39.7925,187.8412 L46.8625,170.8182 Z M89.2205,198.3592 L113.3115,198.3592 L106.2425,215.3822 L89.2205,198.3592 Z M39.7925,198.3592 L63.8275,198.3592 L46.8055,215.3822 L39.7925,198.3592 Z M54.2705,222.7902 L71.2925,205.7682 L71.2925,229.8592 L54.2705,222.7902 Z M81.8115,205.8252 L98.8345,222.8462 L81.8115,229.8592 L81.8115,205.8252 Z" id="Fill-1" fill="#4064D6"></path>
                </g>
            </g>
        </g>
    </g>
</svg>