<?xml version="1.0" encoding="UTF-8"?>
<svg width="460px" height="460px" viewBox="0 0 460 460" version="1.1" xmlns="http://www.w3.org/2000/svg" xmlns:xlink="http://www.w3.org/1999/xlink">
    <title>stamp</title>
    <g id="Design" stroke="none" stroke-width="1" fill="none" fill-rule="evenodd">
        <g id="Personal" transform="translate(-10.000000, -7323.000000)">
            <g id="gift_section" transform="translate(0.000000, 6520.000000)">
                <g id="gift_stamp" transform="translate(10.000000, 803.000000)">
                    <g id="stamp" transform="translate(0.000319, -0.001118)">
                        <path d="M459.701319,435.760556 L459.701319,407.026528 C446.479514,407.026528 435.758958,396.307569 435.758958,383.085764 C435.758958,369.862361 446.479514,359.143403 459.701319,359.143403 L459.701319,330.410972 C446.479514,330.410972 435.758958,319.692014 435.758958,306.468611 C435.758958,293.245208 446.479514,282.52625 459.701319,282.52625 L459.701319,253.793819 C446.479514,253.793819 435.758958,243.074861 435.758958,229.851458 C435.758958,216.629653 446.479514,205.909097 459.701319,205.909097 L459.701319,177.176667 C446.479514,177.176667 435.758958,166.457708 435.758958,153.234306 C435.758958,140.010903 446.479514,129.293542 459.701319,129.293542 L459.701319,100.559514 C446.479514,100.559514 435.758958,89.8405556 435.758958,76.61875 C435.758958,63.3953472 446.479514,52.6763889 459.701319,52.6763889 L459.701319,23.9423611 C446.479514,23.9423611 435.758958,13.2234028 435.758958,1.98951966e-13 L407.026528,1.98951966e-13 C407.026528,13.2234028 396.307569,23.9423611 383.084167,23.9423611 C369.860764,23.9423611 359.143403,13.2234028 359.143403,1.98951966e-13 L330.409375,1.98951966e-13 C330.409375,13.2234028 319.690417,23.9423611 306.467014,23.9423611 C293.245208,23.9423611 282.52625,13.2234028 282.52625,1.98951966e-13 L253.792222,1.98951966e-13 C253.792222,13.2234028 243.073264,23.9423611 229.849861,23.9423611 C216.628056,23.9423611 205.909097,13.2234028 205.909097,1.98951966e-13 L177.175069,1.98951966e-13 C177.175069,13.2234028 166.456111,23.9423611 153.234306,23.9423611 C140.010903,23.9423611 129.291944,13.2234028 129.291944,1.98951966e-13 L100.557917,1.98951966e-13 C100.557917,13.2234028 89.8389583,23.9423611 76.6171528,23.9423611 C63.39375,23.9423611 52.6747917,13.2234028 52.6747917,1.98951966e-13 L23.9407639,1.98951966e-13 C23.9407639,13.2234028 13.2218056,23.9423611 0,23.9423611 L0,52.6763889 C13.2218056,52.6763889 23.9407639,63.3953472 23.9407639,76.61875 C23.9407639,89.8405556 13.2218056,100.559514 0,100.559514 L0,129.293542 C13.2218056,129.293542 23.9407639,140.010903 23.9407639,153.234306 C23.9407639,166.457708 13.2218056,177.176667 0,177.176667 L0,205.909097 C13.2218056,205.909097 23.9407639,216.629653 23.9407639,229.851458 C23.9407639,243.074861 13.2218056,253.793819 0,253.793819 L0,282.52625 C13.2218056,282.52625 23.9407639,293.245208 23.9407639,306.468611 C23.9407639,319.692014 13.2218056,330.410972 0,330.410972 L0,359.143403 C13.2218056,359.143403 23.9407639,369.862361 23.9407639,383.085764 C23.9407639,396.307569 13.2218056,407.026528 0,407.026528 L0,435.760556 C13.2218056,435.760556 23.9407639,446.479514 23.9407639,459.702917 L52.6747917,459.702917 C52.6747917,446.479514 63.39375,435.760556 76.6171528,435.760556 C89.8389583,435.760556 100.557917,446.479514 100.557917,459.702917 L129.291944,459.702917 C129.291944,446.479514 140.010903,435.760556 153.234306,435.760556 C166.456111,435.760556 177.175069,446.479514 177.175069,459.702917 L205.909097,459.702917 C205.909097,446.479514 216.628056,435.760556 229.849861,435.760556 C243.073264,435.760556 253.792222,446.479514 253.792222,459.702917 L282.52625,459.702917 C282.52625,446.479514 293.245208,435.760556 306.467014,435.760556 C319.690417,435.760556 330.409375,446.479514 330.409375,459.702917 L359.143403,459.702917 C359.143403,446.479514 369.860764,435.760556 383.084167,435.760556 C396.307569,435.760556 407.026528,446.479514 407.026528,459.702917 L435.758958,459.702917 C435.758958,446.479514 446.479514,435.760556 459.701319,435.760556" id="stamp_shape" fill="#6685E8"></path>
                        <rect id="Rectangle" fill="#1E3447" x="45.9996806" y="46.0011181" width="368" height="368"></rect>
                    </g>
                </g>
            </g>
        </g>
    </g>
</svg>