<?xml version="1.0" encoding="UTF-8"?>
<svg width="1431px" height="1061px" viewBox="0 0 1431 1061" version="1.1" xmlns="http://www.w3.org/2000/svg" xmlns:xlink="http://www.w3.org/1999/xlink">
    <title>labels_full_lines</title>
    <g id="Design" stroke="none" stroke-width="1" fill="none" fill-rule="evenodd">
        <g id="labels_full_lines" transform="translate(0.000000, 1.000000)" stroke="#4064D6" stroke-width="2">
            <g id="label_to" transform="translate(949.000000, 365.000000)">
                <g id="Group-12" transform="translate(0.948488, 0.160409)">
                    <polygon id="Stroke-1" transform="translate(240.062803, 119.839591) rotate(-90.000000) translate(-240.062803, -119.839591) " points="359.562803 359.679182 120.562803 359.679182 120.562803 -2.32298768 240.062803 -120 359.562803 -2.32298768"></polygon>
                    <polyline id="Path" points="72 46.8395909 479.402394 46.8395909 479.402394 192.839591 72 192.839591"></polyline>
                </g>
            </g>
            <path d="M950.360239,485 L917.941626,485 C890.913981,485 869.003213,506.937915 869.003213,534.000275 C869.003213,561.062085 890.913981,583 917.941626,583 L1063.21911,583 L1213.52807,583 C1227.16243,582.972284 1243.00027,582.958426 1261.04157,582.958426 C1288.10354,582.958426 1310.04157,604.879698 1310.04157,631.9203 L1310.04157,656.958426" id="Path"></path>
            <g id="label_from" transform="translate(1310.000000, 857.000000) rotate(-270.000000) translate(-1310.000000, -857.000000) translate(1108.000000, 737.000000)">
                <polygon id="Stroke-1" transform="translate(202.285482, 120.000000) rotate(-90.000000) translate(-202.285482, -120.000000) " points="321.785482 321.5 82.7854818 321.5 82.7854818 36.1770123 202.285482 -81.5 321.785482 36.1770123"></polygon>
                <polyline id="Path" points="72.2854818 47 403.285482 47 403.285482 193 72.2854818 193"></polyline>
            </g>
            <path d="M0,0 L562.273445,0 C589.184085,0 611,21.7140585 611,48.4997274 C611,75.2859415 589.184085,97 562.273445,97 L378.77192,97 C351.836226,97 330,118.714059 330,145.500273 C330,172.285941 351.836226,194 378.77192,194 L902.944472,194 C939.977814,194 970,223.996741 970,260.999623 C970,298.003259 939.977814,328 902.944472,328 L295.521711,328 C252.15584,328 217,363.145435 217,406.500441 C217,449.854565 252.15584,485 295.521711,485 L951,485" id="Stroke-16"></path>
        </g>
    </g>
</svg>