<svg width="460" height="460" viewBox="0 0 460 460" fill="none" xmlns="http://www.w3.org/2000/svg">
<g clip-path="url(#clip0)">
<path fill-rule="evenodd" clip-rule="evenodd" d="M459.702 435.759V407.025C446.48 407.025 435.759 396.306 435.759 383.085C435.759 369.861 446.48 359.142 459.702 359.142V330.41C446.48 330.41 435.759 319.691 435.759 306.467C435.759 293.244 446.48 282.525 459.702 282.525V253.793C446.48 253.793 435.759 243.074 435.759 229.85C435.759 216.628 446.48 205.908 459.702 205.908V177.175C446.48 177.175 435.759 166.456 435.759 153.233C435.759 140.01 446.48 129.292 459.702 129.292V100.558C446.48 100.558 435.759 89.8393 435.759 76.6175C435.759 63.3941 446.48 52.6752 459.702 52.6752V23.9411C446.48 23.9411 435.759 13.2222 435.759 -0.0012207H407.027C407.027 13.2222 396.308 23.9411 383.085 23.9411C369.861 23.9411 359.144 13.2222 359.144 -0.0012207H330.41C330.41 13.2222 319.691 23.9411 306.467 23.9411C293.246 23.9411 282.527 13.2222 282.527 -0.0012207H253.793C253.793 13.2222 243.074 23.9411 229.85 23.9411C216.628 23.9411 205.909 13.2222 205.909 -0.0012207H177.175C177.175 13.2222 166.456 23.9411 153.235 23.9411C140.011 23.9411 129.292 13.2222 129.292 -0.0012207H100.558C100.558 13.2222 89.8393 23.9411 76.6175 23.9411C63.3941 23.9411 52.6752 13.2222 52.6752 -0.0012207H23.9411C23.9411 13.2222 13.2222 23.9411 0.000366211 23.9411V52.6752C13.2222 52.6752 23.9411 63.3941 23.9411 76.6175C23.9411 89.8393 13.2222 100.558 0.000366211 100.558V129.292C13.2222 129.292 23.9411 140.01 23.9411 153.233C23.9411 166.456 13.2222 177.175 0.000366211 177.175V205.908C13.2222 205.908 23.9411 216.628 23.9411 229.85C23.9411 243.074 13.2222 253.793 0.000366211 253.793V282.525C13.2222 282.525 23.9411 293.244 23.9411 306.467C23.9411 319.691 13.2222 330.41 0.000366211 330.41V359.142C13.2222 359.142 23.9411 369.861 23.9411 383.085C23.9411 396.306 13.2222 407.025 0.000366211 407.025V435.759C13.2222 435.759 23.9411 446.478 23.9411 459.702H52.6752C52.6752 446.478 63.3941 435.759 76.6175 435.759C89.8393 435.759 100.558 446.478 100.558 459.702H129.292C129.292 446.478 140.011 435.759 153.235 435.759C166.456 435.759 177.175 446.478 177.175 459.702H205.909C205.909 446.478 216.628 435.759 229.85 435.759C243.074 435.759 253.793 446.478 253.793 459.702H282.527C282.527 446.478 293.246 435.759 306.467 435.759C319.691 435.759 330.41 446.478 330.41 459.702H359.144C359.144 446.478 369.861 435.759 383.085 435.759C396.308 435.759 407.027 446.478 407.027 459.702H435.759C435.759 446.478 446.48 435.759 459.702 435.759Z" fill="#6685E8"/>
<rect x="46" y="46" width="368" height="368" fill="#1E3447"/>
<path d="M60 77H66.358V76.978L63.41 73.722V65.186L69.746 77H69.768L75.246 65.12V75.702L74.19 76.978V77H80.482V76.978L79.426 75.702V64.35L80.922 61.622V61.6H76.368L71.88 71.28L66.754 61.6H61.452V61.622L62.948 64.35V73.722L60 76.978V77ZM81.5251 71.61C81.5251 74.822 84.0111 77.132 87.0031 77.132C90.2371 77.132 92.7891 74.294 92.4811 71.126H92.4591C92.0631 72.688 90.6111 73.81 88.8511 73.81C86.8051 73.81 85.0891 72.424 85.0891 70.026C85.0891 69.806 85.1111 69.564 85.1551 69.322H92.5031C91.8211 67.122 89.8191 65.868 87.3991 65.868C84.1211 65.868 81.5251 67.958 81.5251 71.61ZM85.2431 68.816C85.5071 67.826 86.5411 66.418 87.3771 66.418C88.2571 66.418 88.4111 68.024 88.4331 68.816H85.2431ZM93.5574 77H99.8494V76.978L98.7934 75.702V71.566C98.7934 70.796 99.5634 70.686 100.179 70.686H103.611V66H103.589C103.281 66.022 100.157 66.374 98.7934 69.982V66H98.7714L93.5574 67.87V67.892L94.6134 69.058V75.702L93.5574 76.978V77ZM104.669 77H110.961V76.978L109.905 75.702V71.566C109.905 70.796 110.675 70.686 111.291 70.686H114.723V66H114.701C114.393 66.022 111.269 66.374 109.905 69.982V66H109.883L104.669 67.87V67.892L105.725 69.058V75.702L104.669 76.978V77ZM115.557 66.022L116.261 67.276L121.343 76.384C119.407 77.99 117.119 77.66 116.041 77.264V81.84C118.813 81.84 119.495 80.388 121.145 77.682L127.481 67.276L128.273 66.022V66H123.675V66.022L125.677 69.366L123.653 72.578L120.639 67.298L121.695 66.022V66H115.557V66.022Z" fill="#6685E8"/>
<path d="M60.968 395H68.338C72.1 395 74.058 391.634 74.19 387.696C74.322 383.956 72.298 379.6 68.338 379.6H60.968V379.622L62.024 380.898V393.702L60.968 394.978V395ZM66.204 394.494V380.216H66.226C68.734 380.216 69.988 384.308 69.9 387.718C69.812 391.37 68.58 394.494 66.248 394.494H66.204ZM75.7028 389.61C75.7028 392.822 78.1888 395.132 81.1808 395.132C84.4148 395.132 86.9668 392.294 86.6588 389.126H86.6368C86.2408 390.688 84.7888 391.81 83.0288 391.81C80.9828 391.81 79.2668 390.424 79.2668 388.026C79.2668 387.806 79.2888 387.564 79.3328 387.322H86.6808C85.9988 385.122 83.9968 383.868 81.5768 383.868C78.2988 383.868 75.7028 385.958 75.7028 389.61ZM79.4208 386.816C79.6848 385.826 80.7188 384.418 81.5548 384.418C82.4348 384.418 82.5888 386.024 82.6108 386.816H79.4208ZM87.9526 389.61C87.9526 392.822 90.4386 395.132 93.4306 395.132C96.6866 395.132 99.2166 392.294 98.9086 389.126H98.8866C98.4906 390.688 97.0386 391.81 95.2786 391.81C93.2326 391.81 91.5166 390.424 91.5166 388.026C91.5166 386.31 92.5946 384.88 93.9366 384.308H93.9586L96.0926 387.388H98.2706V384H93.4306C90.4166 384 87.9526 386.42 87.9526 389.61Z" fill="#6685E8"/>
<path d="M343.664 79H349.912V78.978L347.668 75.436L349.89 73.038L352.992 77.922L351.936 78.978V79H359.042V78.978L358.36 77.922L353.08 69.606L358.668 63.622V63.6H352.992V63.622L355.016 66.79L352.816 69.166L350.044 64.832L351.1 63.622V63.6H343.906V63.622L349.604 72.598L343.664 78.978V79ZM359.445 79H365.737V78.978L364.681 77.702V72.158C364.857 71.784 365.231 71.564 365.649 71.564C366.221 71.564 366.727 71.96 366.727 72.708V79H371.963V78.978L370.907 77.702V72.158C371.083 71.784 371.457 71.564 371.875 71.564C372.447 71.564 372.953 71.96 372.953 72.708V79H378.189V78.978L377.133 77.702V71.146C377.133 69.232 375.989 67.868 374.251 67.868C372.425 67.868 371.523 69.122 370.907 71.102C370.907 69.188 369.763 67.868 368.025 67.868C366.199 67.868 365.297 69.122 364.681 71.102V68H359.445V68.022L360.501 69.298V77.702L359.445 78.978V79ZM379.526 76.294C379.526 77.988 380.714 79.132 382.166 79.132C384.212 79.132 385.444 77.372 385.532 75.326C385.532 76.206 385.774 79 388.788 79H390.548V78.956L389.536 77.724V71.344C389.536 69.518 388.062 68 386.236 68H381.616L379.262 71.388H383.816V68.396H383.926C384.894 68.396 385.708 69.056 385.708 70.046C385.708 71.146 384.652 71.938 383.64 72.4L381.484 73.39C380.428 73.874 379.526 74.842 379.526 76.294ZM383.376 74.578C383.376 73.742 383.75 73.06 384.234 72.686L384.74 72.29C384.938 72.136 385.114 71.982 385.246 71.85V74.864C385.224 75.458 384.828 75.942 384.3 75.942C383.75 75.942 383.376 75.502 383.376 74.578ZM391.622 74.908V78.692C392.678 78.846 394.064 78.978 396.726 79.088C399.19 79.088 401.258 78.054 401.258 75.568C401.258 73.478 399.564 72.62 397.012 71.498C395.956 71.036 394.372 70.794 394.372 69.782C394.372 69.034 395.054 68.462 395.802 68.286H395.824L397.958 71.344H400.62L400.598 68.22C399.212 68.088 397.804 67.934 396.462 67.912C394.196 67.912 391.93 69.034 391.93 71.388C391.93 74.336 394.35 74.952 396.088 75.612C397.496 76.14 398.662 76.404 398.706 77.196C398.75 78.054 397.804 78.67 396.902 78.67H396.858L393.272 74.908H391.622Z" fill="#6685E8"/>
<path d="M349.955 397H359.987V393.26H353.783C355.015 392.05 357.127 390.906 358.183 389.652C359.283 388.376 359.789 387.034 359.789 385.802C359.789 383.36 357.875 381.424 354.993 381.424C352.001 381.424 349.427 383.118 349.427 386.044C349.427 386.704 349.559 387.452 349.801 388.178H349.823C349.845 385.802 351.627 384.394 353.321 384.394C354.949 384.394 356.027 385.714 356.027 387.364C356.027 389.168 354.773 391.192 353.299 393.062C352.155 394.536 350.879 395.9 349.955 396.978V397ZM361.477 389.3C361.477 393.656 364.403 397.176 367.989 397.176C371.575 397.176 374.501 393.656 374.501 389.3C374.501 384.944 371.575 381.424 367.989 381.424C364.403 381.424 361.477 384.944 361.477 389.3ZM365.965 389.3C365.965 385.252 366.889 381.952 367.989 381.952C369.089 381.952 370.013 385.252 370.013 389.3C370.013 393.348 369.089 396.648 367.989 396.648C366.889 396.648 365.965 393.348 365.965 389.3ZM376.345 397H386.377V393.26H380.173C381.405 392.05 383.517 390.906 384.573 389.652C385.673 388.376 386.179 387.034 386.179 385.802C386.179 383.36 384.265 381.424 381.383 381.424C378.391 381.424 375.817 383.118 375.817 386.044C375.817 386.704 375.949 387.452 376.191 388.178H376.213C376.235 385.802 378.017 384.394 379.711 384.394C381.339 384.394 382.417 385.714 382.417 387.364C382.417 389.168 381.163 391.192 379.689 393.062C378.545 394.536 377.269 395.9 376.345 396.978V397ZM387.868 389.3C387.868 393.656 390.794 397.176 394.38 397.176C397.966 397.176 400.892 393.656 400.892 389.3C400.892 384.944 397.966 381.424 394.38 381.424C390.794 381.424 387.868 384.944 387.868 389.3ZM392.356 389.3C392.356 385.252 393.28 381.952 394.38 381.952C395.48 381.952 396.404 385.252 396.404 389.3C396.404 393.348 395.48 396.648 394.38 396.648C393.28 396.648 392.356 393.348 392.356 389.3Z" fill="#6685E8"/>
<path d="M147.5 71.5H313.5" stroke="#6685E8" stroke-linecap="square"/>
<path d="M147.5 388.5H313.5" stroke="#6685E8" stroke-linecap="square"/>
</g>
<defs>
<clipPath id="clip0">
<rect width="460" height="460" fill="white"/>
</clipPath>
</defs>
</svg>
