<?xml version="1.0" encoding="UTF-8"?>
<svg width="112px" height="232px" viewBox="0 0 112 232" version="1.1" xmlns="http://www.w3.org/2000/svg" xmlns:xlink="http://www.w3.org/1999/xlink">
    <title>AC_member</title>
    <defs>
        <path d="M109.892324,54.9457746 C109.892324,85.291831 85.2926056,109.892324 54.9465493,109.892324 C24.600493,109.892324 3.12638804e-13,85.291831 3.12638804e-13,54.9457746 C3.12638804e-13,24.5997183 24.600493,8.52651283e-14 54.9465493,8.52651283e-14 C85.2926056,8.52651283e-14 109.892324,24.5997183 109.892324,54.9457746 Z" id="path-1"></path>
    </defs>
    <g id="Design" stroke="none" stroke-width="1" fill="none" fill-rule="evenodd">
        <g id="AC_member" transform="translate(1.000000, 0.000000)">
            <g id="Stroke-30" transform="translate(-0.000310, 120.976373)">
                <mask id="mask-2" fill="white">
                    <use xlink:href="#path-1"></use>
                </mask>
                <use id="Stroke-1" fill="#9DB2F6" xlink:href="#path-1"></use>
            </g>
            <path d="M109.892324,175.945775 C109.892324,206.291831 85.2926056,230.892324 54.9465493,230.892324 C24.600493,230.892324 -1.42108547e-13,206.291831 -1.42108547e-13,175.945775 C-1.42108547e-13,145.599718 24.600493,121 54.9465493,121 C85.2926056,121 109.892324,145.599718 109.892324,175.945775 Z" id="Stroke-1" stroke="#9DB2F6" stroke-width="2"></path>
            <path d="M49.0220423,120.976296 C48.8314789,120.379817 48.7292254,119.743831 48.7292254,119.084606 C48.7292254,115.650592 51.5125352,112.867282 54.9457746,112.867282 C58.3797887,112.867282 61.1630986,115.650592 61.1630986,119.084606 C61.1630986,119.743831 61.0608451,120.379817 60.8702817,120.976296" id="Stroke-3" stroke="#9DB2F6" stroke-width="2"></path>
            <line x1="54.946162" y1="112.867437" x2="54.946162" y2="0.774338028" id="Stroke-5" stroke="#9DB2F6" stroke-width="2"></line>
        </g>
    </g>
</svg>