<?xml version="1.0" encoding="UTF-8"?>
<svg width="222px" height="481px" viewBox="0 0 222 481" version="1.1" xmlns="http://www.w3.org/2000/svg" xmlns:xlink="http://www.w3.org/1999/xlink">
    <title>ornament_xxx</title>
    <g id="Design" stroke="none" stroke-width="1" fill="none" fill-rule="evenodd">
        <g id="Start" transform="translate(-489.000000, -2833.000000)">
            <g id="ornament_xxx" transform="translate(490.000000, 2833.000000)">
                <polyline id="Stroke-13" stroke="#9DB2F6" stroke-width="2" fill="#9DB2F6" points="78.9116761 264.14369 78.9116761 240.952282 140.872662 240.952282 140.872662 264.14369"></polyline>
                <line x1="109.892169" y1="224.735028" x2="109.892169" y2="0.548830986" id="Stroke-15" stroke="#9DB2F6" stroke-width="2"></line>
                <path d="M98.0440845,240.952592 C97.6629577,239.759634 97.4584507,238.487662 97.4584507,237.169211 C97.4584507,230.301183 103.02507,224.734563 109.891549,224.734563 C116.759577,224.734563 122.326197,230.301183 122.326197,237.169211 C122.326197,238.487662 122.12169,239.759634 121.740563,240.952592" id="Stroke-18" stroke="#9DB2F6" stroke-width="2"></path>
                <g id="Group" transform="translate(-0.000620, 259.626873)">
                    <path d="M219.784648,109.893099 C219.784648,170.585211 170.585211,219.784648 109.893099,219.784648 C49.2009859,219.784648 0,170.585211 0,109.893099 C0,49.2009859 49.2009859,-1.42108547e-14 109.893099,-1.42108547e-14 C170.585211,-1.42108547e-14 219.784648,49.2009859 219.784648,109.893099 Z" id="Stroke-1" stroke="#9DB2F6" stroke-width="2" fill="#1E3447"></path>
                    <polygon id="Fill-3" fill="#9DB2F6" points="121.277324 91.9362958 109.893099 103.320521 98.5088732 91.9362958 91.9367606 98.5084085 103.320986 109.892634 91.9367606 121.276859 98.5088732 127.850521 109.893099 116.466296 121.277324 127.850521 127.849437 121.276859 116.465211 109.892634 127.849437 98.5084085"></polygon>
                    <polygon id="Fill-5" fill="#9DB2F6" points="170.214775 91.9362958 158.830549 103.320521 147.446324 91.9362958 140.874211 98.5084085 152.258437 109.892634 140.874211 121.276859 147.446324 127.850521 158.830549 116.466296 170.214775 127.850521 176.786887 121.276859 165.402662 109.892634 176.786887 98.5084085"></polygon>
                    <polygon id="Fill-7" fill="#9DB2F6" points="72.3398732 91.9362958 60.9556479 103.320521 49.5714225 91.9362958 42.9993099 98.5084085 54.3835352 109.892634 42.9993099 121.276859 49.5714225 127.850521 60.9556479 116.466296 72.3398732 127.850521 78.9119859 121.276859 67.5277606 109.892634 78.9119859 98.5084085"></polygon>
                    <path d="M211.985958,69.1673803 L7.80426761,69.1673803 C11.5845493,59.6701972 16.6662394,50.8237183 22.8324366,42.8448451 L196.942296,42.8448451 C203.108493,50.8237183 208.190183,59.6701972 211.985958,69.1673803 Z" id="Stroke-9" stroke="#9DB2F6" stroke-width="2"></path>
                    <path d="M211.985958,150.613549 C208.205676,160.110732 203.123986,168.957211 196.957789,176.936085 L22.8169437,176.936085 C16.6662394,168.957211 11.5845493,160.110732 7.78877465,150.613549 L211.985958,150.613549 Z" id="Stroke-11" stroke="#9DB2F6" stroke-width="2"></path>
                </g>
            </g>
        </g>
    </g>
</svg>