<?xml version="1.0" encoding="UTF-8"?>
<svg width="222px" height="635px" viewBox="0 0 222 635" version="1.1" xmlns="http://www.w3.org/2000/svg" xmlns:xlink="http://www.w3.org/1999/xlink">
    <title>ornament_round</title>
    <g id="Design" stroke="none" stroke-width="1" fill="none" fill-rule="evenodd">
        <g id="Start" transform="translate(-252.000000, -4591.000000)" stroke-width="2">
            <g id="ornament_round" transform="translate(253.000000, 4591.000000)">
                <polyline id="Stroke-3" stroke="#9DB2F6" fill="#9DB2F6" points="78.911831 418.594704 78.911831 395.403296 140.872817 395.403296 140.872817 418.594704"></polyline>
                <path d="M98.0434648,395.402986 C97.662338,394.210028 97.457831,392.939606 97.457831,391.619606 C97.457831,384.751577 103.024451,379.184958 109.892479,379.184958 C116.758958,379.184958 122.327127,384.751577 122.327127,391.619606 C122.327127,392.939606 122.12107,394.210028 121.739944,395.402986" id="Stroke-5" stroke="#9DB2F6"></path>
                <line x1="109.892479" y1="379.185268" x2="110" y2="-4.97376662e-14" id="Stroke-7" stroke="#9DB2F6"></line>
                <path d="M219.784183,523.970211 C219.784183,584.662324 170.583197,633.86331 109.892634,633.86331 C49.2005211,633.86331 -0.000464788732,584.662324 -0.000464788732,523.970211 C-0.000464788732,463.278099 49.2005211,414.078662 109.892634,414.078662 C170.583197,414.078662 219.784183,463.278099 219.784183,523.970211 Z" id="Stroke-1" stroke="#6685E8" fill="#6685E8"></path>
            </g>
        </g>
    </g>
</svg>